G04 ================== begin FILE IDENTIFICATION RECORD ==================*
G04 Layout Name:  c:/Users/user/Desktop/work/avrusb500/micro_usb.brd*
G04 Film Name:    AutoSilkBot*
G04 File Format:  Gerber RS274X*
G04 File Origin:  Cadence Allegro 16.6-S034*
G04 Origin Date:  Fri Jul 19 12:19:46 2019*
G04 *
G04 Layer:  MANUFACTURING/AUTOSILK_BOTTOM*
G04 *
G04 Offset:    (0.000 0.000)*
G04 Mirror:    No*
G04 Mode:      Positive*
G04 Rotation:  0*
G04 FullContactRelief:  No*
G04 UndefLineWidth:     0.000*
G04 ================== end FILE IDENTIFICATION RECORD ====================*
%FSLAX25Y25*MOMM*%
%IR0*IPPOS*OFA0.00000B0.00000*MIA0B0*SFA1.00000B1.00000*%
%ADD10C,.2*%
G75*
%LPD*%
G75*
G54D10*
G01X1835700Y491000D02*
X1843700Y497000D01*
X1853000Y501000D01*
X1863700D01*
X1875700Y495000D01*
X1885000Y485000D01*
X1891700Y473000D01*
X1897000Y453000D01*
X1898300Y435000D01*
X1895700Y417000D01*
X1891700Y405000D01*
X1883700Y393000D01*
X1874300Y385000D01*
X1865000Y381000D01*
X1855700D01*
X1846300Y385000D01*
X1838300Y391000D01*
X1831700Y399000D01*
G01X1792500Y381000D02*
Y501000D01*
G01Y443000D02*
X1785800Y453000D01*
X1779100Y459000D01*
X1768500Y461000D01*
X1760500Y459000D01*
X1751100Y451000D01*
X1747100Y439000D01*
Y381000D01*
G01X1674600D02*
X1682600Y383000D01*
X1690600Y391000D01*
X1695900Y405000D01*
X1698600Y421000D01*
X1695900Y437000D01*
X1690600Y451000D01*
X1682600Y459000D01*
X1674600Y461000D01*
X1666600Y459000D01*
X1658600Y451000D01*
X1653300Y437000D01*
X1651900Y421000D01*
X1653300Y405000D01*
X1658600Y391000D01*
X1666600Y383000D01*
X1674600Y381000D01*
G01X1579400Y461000D02*
Y381000D01*
G01Y493000D02*
X1582100Y495000D01*
Y499000D01*
X1579400Y501000D01*
X1576700Y499000D01*
Y495000D01*
X1579400Y493000D01*
G01X1411700Y381000D02*
Y501000D01*
G01X1369000Y461000D02*
X1411700Y415000D01*
G01X1394300Y433000D02*
X1366300Y381000D01*
G01X1321800Y345000D02*
X1313800Y341000D01*
X1303100Y345000D01*
X1296500Y353000D01*
X1291100Y363000D01*
X1283100Y395000D01*
X1265800Y461000D01*
G01X1308500D02*
X1283100Y395000D01*
G01X1221300Y461000D02*
Y405000D01*
X1215900Y391000D01*
X1207900Y383000D01*
X1198600Y381000D01*
X1189300Y383000D01*
X1181300Y391000D01*
X1175900Y405000D01*
G01Y381000D02*
Y461000D01*
G01X1030900Y381000D02*
Y461000D01*
G01Y441000D02*
X1025500Y451000D01*
X1017500Y459000D01*
X1006900Y461000D01*
X997500Y459000D01*
X989500Y451000D01*
X985500Y437000D01*
Y381000D01*
G01X889000D02*
Y461000D01*
G01Y447000D02*
X894300Y455000D01*
X902300Y459000D01*
X911700Y461000D01*
X921000Y457000D01*
X929000Y449000D01*
X934300Y437000D01*
X937000Y421000D01*
X934300Y405000D01*
X929000Y393000D01*
X921000Y385000D01*
X911700Y381000D01*
X902300Y383000D01*
X894300Y389000D01*
X889000Y397000D01*
G01X857800Y381000D02*
Y461000D01*
G01Y439000D02*
X853800Y449000D01*
X847100Y457000D01*
X837800Y461000D01*
X828500Y457000D01*
X821800Y449000D01*
X817800Y439000D01*
Y381000D01*
G01Y439000D02*
X813800Y449000D01*
X807100Y457000D01*
X797800Y461000D01*
X788500Y457000D01*
X781800Y449000D01*
X777800Y437000D01*
Y381000D01*
M02*
