G04 ================== begin FILE IDENTIFICATION RECORD ==================*
G04 Layout Name:  c:/Users/user/Desktop/work/avrusb500/micro_usb.brd*
G04 Film Name:    BOTTOM*
G04 File Format:  Gerber RS274X*
G04 File Origin:  Cadence Allegro 16.6-S034*
G04 Origin Date:  Fri Jul 19 12:19:46 2019*
G04 *
G04 Layer:  ETCH/BOTTOM*
G04 Layer:  PIN/BOTTOM*
G04 Layer:  VIA CLASS/BOTTOM*
G04 *
G04 Offset:    (0.000 0.000)*
G04 Mirror:    No*
G04 Mode:      Positive*
G04 Rotation:  0*
G04 FullContactRelief:  No*
G04 UndefLineWidth:     0.000*
G04 ================== end FILE IDENTIFICATION RECORD ====================*
%FSLAX25Y25*MOMM*%
%IR0*IPPOS*OFA0.00000B0.00000*MIA0B0*SFA1.00000B1.00000*%
%ADD11C,1.321*%
%ADD10R,1.321X1.321*%
%ADD13C,1.575*%
%ADD14R,1.575X1.575*%
%ADD15O,1.9X1.2*%
%ADD12C,.61*%
%ADD16C,.254*%
%ADD17C,.381*%
%ADD21C,1.58*%
%ADD19C,1.834*%
%ADD22C,2.088*%
%ADD20O,2.412X1.712*%
%ADD18R,1.58X1.58*%
%ADD23R,2.088X2.088*%
G75*
%LPD*%
G75*
G36*
G01X300100Y300100D02*
Y3699900D01*
X3379800D01*
G02X3387000Y3682500I3J-10188D01*
G01X3333800Y3629200D01*
X3305200Y3657800D01*
X1393800D01*
X1358700Y3622700D01*
Y3254400D01*
X596700Y2492400D01*
Y1480300D01*
G03X673300I38300J-83300D01*
G01Y2460600D01*
X1435300Y3222600D01*
Y3237000D01*
G02X1453400Y3243500I10201J45D01*
G03X1604100Y3257300I70625J58498D01*
G01X1697900D01*
G03X1733300Y3221900I80100J44700D01*
G01Y1251500D01*
X1940400Y1044400D01*
Y924400D01*
X2106400D01*
Y404800D01*
X2193700Y317500D01*
G02X2186500Y300100I-7197J-7212D01*
G01X300100D01*
G37*
G36*
G01X6703500D02*
G02X6696300Y317500I-3J10188D01*
G01X6769300Y390500D01*
Y805700D01*
G03X6778600Y967400I-38298J83320D01*
G02X6775800Y982200I5336J8674D01*
G03X6731200Y1072100I-44788J33793D01*
G01X6729100D01*
X6683400Y1117800D01*
X6487600D01*
X6439800Y1070000D01*
Y745000D01*
X6565700Y619100D01*
Y550500D01*
X6434500Y419300D01*
X3309500D01*
X3213300Y515500D01*
Y765200D01*
X3178200Y800300D01*
X3139600D01*
Y853600D01*
X2956400D01*
Y670400D01*
X3136700D01*
Y483700D01*
X3247200Y373200D01*
G02X3240000Y355800I-7197J-7212D01*
G01X2263800D01*
X2217700Y401900D01*
G02X2224900Y419300I7197J7212D01*
G01X2794900D01*
G03X2802100Y436700I-26J10200D01*
G01X2712000Y526800D01*
X2197300D01*
Y434600D01*
G02X2188600Y431000I-5090J-12D01*
G01X2183000Y436600D01*
Y1785900D01*
X2186000Y1788900D01*
X2456300D01*
X2501700Y1743400D01*
Y1734400D01*
X2498900Y1733000D01*
G03X2480400Y1581300I41092J-81989D01*
G02X2481000Y1566300I-6598J-7776D01*
G01X2431800Y1517100D01*
Y1176900D01*
G03X2521200I44700J-33900D01*
G01Y1479300D01*
X3701600D01*
X4146100Y1923800D01*
X4157100D01*
X4158400Y1922900D01*
G03X4224900Y1923800I32639J45610D01*
G01X5323900D01*
X5382300Y1865400D01*
X5400300D01*
X5543300Y1722400D01*
Y1595400D01*
X5976900Y1161800D01*
X6689500D01*
X6694600Y1166900D01*
X6961400D01*
X7093500Y1034800D01*
X7332100D01*
G03Y1124200I33900J44700D01*
G01X7130500D01*
X6998400Y1256300D01*
X6657600D01*
X6652500Y1251200D01*
X6013900D01*
X5632700Y1632400D01*
Y1759400D01*
X5437300Y1954800D01*
X5419300D01*
X5397800Y1976300D01*
G02X5405000Y1993700I7226J7200D01*
G01X5699100D01*
X5740200Y1952600D01*
Y1882500D01*
G03X5816800I38300J-41000D01*
G01Y1984400D01*
X5730900Y2070300D01*
X4722700D01*
G02X4715500Y2087700I-3J10188D01*
G01X4735800Y2108000D01*
X4988200D01*
G03Y2184600I41000J38300D01*
G01X4704000D01*
X4701600Y2182200D01*
G02X4685400Y2184700I-7179J7215D01*
G03X4635700Y2215100I-49873J-25710D01*
G01X4633600D01*
X4587900Y2260800D01*
X4528500D01*
G02X4521100Y2278000I-3J10190D01*
G03X4368900I-76100J71500D01*
G02X4361500Y2260800I-7397J-7010D01*
G01X4274500D01*
G02X4267100Y2278000I-3J10190D01*
G03X4114900I-76100J71500D01*
G02X4107500Y2260800I-7397J-7010D01*
G01X4002000D01*
G02X3995500Y2278900I-45J10201D01*
G03X3957300Y2260100I-58480J70617D01*
G02X3966800Y2242900I2285J-9961D01*
G01X3802200Y2078400D01*
G02X3784800Y2085600I-7212J7197D01*
G01Y3009700D01*
X4067200D01*
X4102300Y3044800D01*
Y3237000D01*
G02X4120400Y3243500I10201J45D01*
G03Y3360500I70600J58500D01*
G02X4102300Y3367000I-7899J6455D01*
G01Y3581200D01*
X4443500D01*
G02X4450000Y3563100I45J-10201D01*
G03X4470200Y3409200I58509J-70596D01*
G01Y3254400D01*
X4406700Y3190900D01*
Y2917800D01*
X4441800Y2882700D01*
X4660700D01*
Y2732000D01*
G02X4642600Y2725500I-10201J-45D01*
G03Y2608500I-70600J-58500D01*
G02X4660700Y2602000I7899J-6455D01*
G01Y2446600D01*
G03X4737300I38300J-97100D01*
G01Y2892600D01*
G02X4754700Y2899800I10188J3D01*
G01X4761700Y2892800D01*
X4788600D01*
X4914700Y2766700D01*
Y2453800D01*
X4848600D01*
Y2245200D01*
X5057400D01*
Y2453800D01*
X4991300D01*
Y2798500D01*
X4857000Y2932800D01*
G02X4860800Y2949600I7226J7195D01*
G03X4864300Y3145100I-34822J98405D01*
G01Y3327200D01*
X5413400D01*
X5492600Y3406500D01*
X5495600Y3405500D01*
G03X5583000Y3563100I28873J87022D01*
G02X5589500Y3581200I6455J7899D01*
G01X5867200D01*
Y2397100D01*
X6184700Y2079600D01*
Y1793900D01*
X6143600Y1752800D01*
X5819500D01*
G03Y1676200I-41000J-38300D01*
G01X6175400D01*
X6261300Y1762100D01*
Y2111400D01*
X5943800Y2428900D01*
Y3622700D01*
X5939200Y3627300D01*
G02X5946400Y3644700I7197J7212D01*
G01X7682000D01*
G02X7688500Y3626600I45J-10201D01*
G03X7805500I58500J-70600D01*
G02X7812000Y3644700I6455J7899D01*
G01X8063000D01*
G02X8069500Y3626600I45J-10201D01*
G03X8041000Y3527100I58511J-70591D01*
G01X8042000Y3524100D01*
X7921600Y3403800D01*
X7616800D01*
X7581700Y3368700D01*
Y2895800D01*
X6907500D01*
X6902400Y2900900D01*
X6813600D01*
X6808500Y2895800D01*
X6706200D01*
X6658000Y2943900D01*
G02X6659800Y2959800I7222J7234D01*
G03X6565700Y2950900I-55814J88208D01*
G01Y2927900D01*
X6674400Y2819200D01*
X6793400D01*
G02X6803400Y2806700I49J-10211D01*
G03X6857800Y2737900I54626J-12714D01*
G01X6859900D01*
X6869800Y2728000D01*
X6864600Y2722800D01*
X6862200Y2722900D01*
G03X6899000Y2628700I-4203J-55930D01*
G01X7282700D01*
G03X7456700Y2680500I83302J38322D01*
G02X7466800Y2692200I10086J1503D01*
G01X7809900D01*
X7812900Y2689200D01*
Y2625300D01*
G02X7797100Y2616800I-10198J22D01*
G03X7660000Y2511100I-50082J-76804D01*
G01X7661000Y2508100D01*
X7604100Y2451300D01*
X6812200D01*
X6791800Y2430900D01*
X6766600D01*
X6746200Y2451300D01*
X6504000D01*
G03Y2374700I-41000J-38300D01*
G01X6714400D01*
X6734800Y2354300D01*
X6823600D01*
X6844000Y2374700D01*
X7635900D01*
X7715100Y2454000D01*
X7718100Y2453000D01*
G03X7833200Y2508700I28919J87014D01*
G02X7850000Y2512400I9574J-3479D01*
G01X7860700Y2501700D01*
X8044700D01*
G03Y2578300I83300J38300D01*
G01X7892500D01*
X7889500Y2581300D01*
Y2721000D01*
X7841700Y2768800D01*
X7465700D01*
X7432700Y2801800D01*
G02X7439900Y2819200I7197J7212D01*
G01X7623200D01*
X7658300Y2854300D01*
Y3327200D01*
X7953400D01*
X8096100Y3470000D01*
X8099100Y3469000D01*
G03X8198600Y3497500I28909J87011D01*
G02X8216700Y3491000I7899J-6455D01*
G01Y3286100D01*
X8359500Y3143400D01*
X8358500Y3140400D01*
G03X8416600Y3198500I87000J-28900D01*
G01X8413600Y3197500D01*
X8293300Y3317900D01*
Y3673500D01*
X8284300Y3682500D01*
G02X8291500Y3699900I7197J7212D01*
G01X10699900D01*
Y300100D01*
X6703500D01*
G37*
G36*
G01X3664600Y1568700D02*
X3625600D01*
G02X3618400Y1586100I17J10197D01*
G01X3627600Y1595300D01*
G03X3630600Y1602500I-7209J7229D01*
G02X3640800Y1612700I10188J12D01*
G01X3690500D01*
X4071500Y1993700D01*
X4077300D01*
G02X4080900Y1985000I-17J-5102D01*
G01X3664600Y1568700D01*
G37*
G36*
G01X3597000Y1739700D02*
G02Y1816300I-41000J38300D01*
G01X3622900D01*
G02X3632100Y1801800I-45J-10197D01*
G03Y1754200I50800J-23800D01*
G02X3622900Y1739700I-9245J-4303D01*
G01X3597000D01*
G37*
G36*
G01X6516400Y1038200D02*
X6519400Y1041200D01*
X6651600D01*
X6674900Y1017900D01*
Y1015800D01*
G03X6686200Y982200I56107J169D01*
G02X6683400Y967400I-8136J-6126D01*
G03X6692700Y805700I47598J-78380D01*
G01Y422300D01*
X6626200Y355800D01*
X6504000D01*
G02X6496800Y373200I-3J10188D01*
G01X6642300Y518700D01*
Y650900D01*
X6516400Y776800D01*
Y1038200D01*
G37*
%LPC*%
G75*
G36*
G01X5476900Y2832300D02*
X5556100Y2753000D01*
X5559100Y2754000D01*
G02X5501000Y2695900I28900J-87000D01*
G01X5502000Y2698900D01*
X5445100Y2755700D01*
X5089500D01*
X5041700Y2803500D01*
Y2950900D01*
G02X5118300I38300J97100D01*
G01Y2835300D01*
X5121300Y2832300D01*
X5476900D01*
G37*
G36*
G01X7445500Y1930200D02*
X7340800Y1825500D01*
Y1571600D01*
X7127900Y1358700D01*
X7026000D01*
G02Y1435300I-41000J38300D01*
G01X7096100D01*
X7264200Y1603400D01*
Y1857300D01*
X7413700Y2006800D01*
X8108200D01*
G02X8205000Y2059200I83314J-38297D01*
G03X8216700Y2069300I1503J10086D01*
G01Y2174900D01*
X8937600Y2895800D01*
X9378200D01*
G02Y2819200I83300J-38300D01*
G01X8969400D01*
X8293300Y2143100D01*
Y2068200D01*
X8334000Y2027500D01*
Y1909500D01*
X8293300Y1868800D01*
Y1619900D01*
X8245500Y1572100D01*
X8242400D01*
X8224700Y1554400D01*
Y1529200D01*
X8242400Y1511500D01*
X8245500D01*
X8293300Y1463700D01*
Y1353300D01*
G02X8216700I-38300J-83300D01*
G01Y1431900D01*
X8213700Y1434900D01*
X8210600D01*
X8148100Y1497400D01*
Y1586200D01*
X8210600Y1648700D01*
X8213700D01*
X8216700Y1651700D01*
Y1867700D01*
G03X8205000Y1877800I-10197J14D01*
G02X8108200Y1930200I-13486J90697D01*
G01X7445500D01*
G37*
G36*
G01X6007300Y1052200D02*
Y972300D01*
G02X5930700I-38300J-83300D01*
G01Y1020400D01*
X5440900Y1510200D01*
G03X5423700Y1505100I-7220J-7203D01*
G02X5250700Y1485700I-89710J18924D01*
G01X5057500D01*
G02Y1562300I-41000J38300D01*
G01X5250700D01*
G02X5257500Y1574600I83417J-38087D01*
G03X5255500Y1588100I-8497J5639D01*
G02X5251700Y1596000I6385J7935D01*
G01Y1679100D01*
X5208900Y1721900D01*
X5206800D01*
G02X5263100Y1778200I200J56100D01*
G01Y1776100D01*
X5299500Y1739700D01*
X5373200D01*
X5393500Y1719400D01*
Y1666000D01*
X6007300Y1052200D01*
G37*
G36*
G01X9645100Y3156200D02*
X9760200Y3041100D01*
Y1657900D01*
X9708600Y1606300D01*
X9442700D01*
Y1488600D01*
X9489600D01*
Y1305400D01*
X9442700D01*
Y853600D01*
X9489600D01*
Y670400D01*
X9306400D01*
Y853600D01*
X9353300D01*
Y1305400D01*
X9306400D01*
Y1488600D01*
X9353300D01*
Y1644100D01*
X9404900Y1695700D01*
X9670800D01*
Y3004100D01*
X9608100Y3066800D01*
X9541600D01*
G02X9416800Y3191600I-80100J44700D01*
G01Y3348900D01*
G02X9506200I44700J80100D01*
G01Y3191600D01*
G02X9541600Y3156200I-44700J-80100D01*
G01X9645100D01*
G37*
G36*
G01X5540400Y609800D02*
X6436000D01*
G02Y533200I41000J-38300D01*
G01X5508600D01*
X5365900Y676000D01*
X5362900Y675000D01*
G02X5295700Y845300I-28784J87051D01*
G01Y911200D01*
X5292700Y914200D01*
X4930600D01*
G02X4872500Y898900I-41120J38185D01*
G03X4859200Y889200I-3115J-9697D01*
G01Y596700D01*
X4285400D01*
G03X4280300Y591600I-7J-5093D01*
G02X4278800Y588000I-5107J15D01*
G01X4268900Y578100D01*
X3969300D01*
G03X3956900Y582500I-8801J-5130D01*
G02X3978000Y673300I-19890J52474D01*
G01X4782600D01*
Y1534800D01*
X4960400Y1712600D01*
Y1714700D01*
G02X5016700Y1658400I56100J-200D01*
G01X5014600D01*
X4859200Y1503000D01*
Y1015600D01*
G03X4872500Y1005900I10185J-3D01*
G02X4930400Y990800I16970J-53485D01*
G01X5324500D01*
X5372300Y943000D01*
Y845300D01*
G02X5421000Y733100I-38311J-83298D01*
G01X5420000Y730100D01*
X5540400Y609800D01*
G37*
G36*
G01X3421100Y566400D02*
X3434800Y552700D01*
X4411100D01*
G02Y463300I33900J-44700D01*
G01X3397800D01*
X3357900Y503200D01*
X3356300Y503500D01*
G02X3420800Y568000I9200J55300D01*
G01X3421100Y566400D01*
G37*
G54D21*
X2286000Y1016000D03*
X2794000Y762000D03*
X9652000D03*
Y1397000D03*
G54D19*
X508000Y3302000D03*
X1397000Y889000D03*
X5588000Y3048000D03*
X6350000Y2667000D03*
X6096000Y3429000D03*
X7239000Y1270000D03*
X7112000Y3048000D03*
Y3429000D03*
X8763000Y635000D03*
Y1270000D03*
X9207500Y1968500D03*
X10414000Y762000D03*
X10477500Y2857500D03*
Y3429000D03*
G54D22*
X5334000Y3048000D03*
X6350000D03*
X6858000D03*
G54D20*
X10541000Y2415000D03*
Y1395000D03*
X10171000Y2415000D03*
Y1395000D03*
G54D18*
X635000Y1143000D03*
X1397000D03*
X2286000Y1651000D03*
X8763000Y889000D03*
Y1524000D03*
X10160000Y762000D03*
G54D23*
X6096000Y3048000D03*
%LPD*%
G75*
G54D10*
X635000Y1143000D03*
X1397000D03*
X2032000Y1016000D03*
X2286000Y1651000D03*
X3048000Y762000D03*
X3429000Y2540000D03*
X8763000Y889000D03*
Y1524000D03*
X9398000Y762000D03*
Y1397000D03*
X10160000Y762000D03*
G54D11*
X635000Y1397000D03*
X508000Y3302000D03*
X1397000Y889000D03*
X1778000Y3302000D03*
X1524000D03*
X2286000Y1016000D03*
X2540000Y1651000D03*
X2794000Y762000D03*
Y1905000D03*
X3429000Y2222500D03*
X2794000Y2921000D03*
X3175000Y3302000D03*
X2794000D03*
X4191000D03*
X4572000Y2667000D03*
X4508500Y3492500D03*
X5334000Y762000D03*
Y1524000D03*
X5588000Y2667000D03*
X5524500Y3492500D03*
X5969000Y889000D03*
X6350000Y2667000D03*
X6096000Y3429000D03*
X6731000Y889000D03*
X7239000Y1270000D03*
X7112000Y3429000D03*
X7366000Y2667000D03*
X7747000Y2540000D03*
Y3556000D03*
X8763000Y635000D03*
X8255000Y1270000D03*
X8763000D03*
X8191500Y1968500D03*
X8128000Y2540000D03*
X8445500Y3111500D03*
X8128000Y3556000D03*
X9207500Y1968500D03*
X9461500Y3111500D03*
Y2857500D03*
Y3429000D03*
X9652000Y762000D03*
Y1397000D03*
X10414000Y762000D03*
X10477500Y2857500D03*
Y3429000D03*
G54D12*
X2476500Y1143000D03*
X3365500Y558800D03*
X3937000Y635000D03*
X3682900Y1778000D03*
X3683000Y1905000D03*
X4097000Y1745000D03*
D03*
X4127500Y1841500D03*
X4191000Y1968500D03*
X4445000Y508000D03*
X4889500Y952400D03*
X4635500Y2159000D03*
X5207000Y1778000D03*
X5016500Y1714500D03*
Y1524000D03*
X5029200Y2146300D03*
X5588000Y3152200D03*
D03*
X6477000Y571500D03*
X5778500Y1714500D03*
Y1841500D03*
X6463000Y2413000D03*
X6731000Y1016000D03*
X6813500Y1541800D03*
D03*
X6985000Y1397000D03*
X6779200Y2461200D03*
X6771600Y2598400D03*
X6783100Y1967200D03*
X6813500Y1941800D03*
D03*
X6858000Y2667000D03*
Y2794000D03*
X7366000Y1079500D03*
X8255000Y1541800D03*
X8890000Y889000D03*
D03*
D03*
Y1524000D03*
D03*
X9652000Y571500D03*
D03*
G54D13*
X3937000Y2349500D03*
X4191000D03*
X4445000D03*
X4699000D03*
X4826000Y3048000D03*
X5588000D03*
X5334000D03*
X5080000D03*
X6350000D03*
X7112000D03*
X6858000D03*
X6604000D03*
G54D14*
X4953000Y2349500D03*
X4572000Y3048000D03*
X6096000D03*
G54D15*
X10171000Y1395000D03*
Y2415000D03*
X10541000Y1395000D03*
Y2415000D03*
G54D16*
G01X5778500Y1714500D02*
X6159500D01*
X6223000Y1778000D01*
Y2095500D01*
X5905500Y2413000D01*
Y3606800D01*
X5892800Y3619500D01*
X4076700D01*
X4064000Y3606800D01*
Y3060700D01*
X4051300Y3048000D01*
X3759200D01*
X3746500Y3035300D01*
Y2040400D01*
X3679700Y1973600D01*
X3654500D01*
X3649400Y1968500D01*
X3365500D01*
X3302000Y2032000D01*
Y3606800D01*
X3289300Y3619500D01*
X1409700D01*
X1397000Y3606800D01*
Y3238500D01*
X635000Y2476500D01*
Y1397000D01*
G01X2540000Y1651000D02*
Y1801800D01*
X2514600Y1827200D01*
X2170100D01*
X2144700Y1801800D01*
Y420700D01*
X2247900Y317500D01*
X6642100D01*
X6731000Y406400D01*
Y889000D01*
G01X5778500Y1841500D02*
Y1968500D01*
X5715000Y2032000D01*
X4224600D01*
X4219500Y2037100D01*
X4162500D01*
X4157400Y2032000D01*
X4055600D01*
X3674600Y1651000D01*
X2540000D01*
G01X3048000Y762000D02*
X3162300D01*
X3175000Y749300D01*
Y499600D01*
X3293600Y381000D01*
X6450400D01*
X6604000Y534600D01*
Y635000D01*
X6478100Y760900D01*
Y1054100D01*
X6503500Y1079500D01*
X6667500D01*
X6731000Y1016000D01*
G01X3429000Y2540000D02*
Y3111500D01*
X3365500Y3175000D01*
Y3606800D01*
X3441700Y3683000D01*
X8229600D01*
X8255000Y3657600D01*
Y3302000D01*
X8445500Y3111500D01*
G01X3937000Y635000D02*
X4820900D01*
Y1518900D01*
X5016500Y1714500D01*
G01X3682900Y1778000D02*
X4051200Y2146300D01*
X4551100D01*
X4607000Y2090400D01*
X4664000D01*
X4719900Y2146300D01*
X5029200D01*
G01X4635500Y2159000D02*
X4572000Y2222500D01*
X4000500D01*
X3683000Y1905000D01*
G01X4889500Y952400D02*
X4889400Y952500D01*
X5308600D01*
X5334000Y927100D01*
Y762000D01*
G01X4699000Y2349500D02*
Y2902900D01*
X4680900Y2921000D01*
X4457700D01*
X4445000Y2933700D01*
Y3175000D01*
X4508500Y3238500D01*
Y3492500D01*
G01X4699000Y2286000D02*
Y2349500D01*
G01X4953000D02*
Y2782600D01*
X4804500Y2931100D01*
X4777600D01*
X4709100Y2999600D01*
Y3026500D01*
X4687600Y3048000D01*
X4572000D01*
G01X4826000D02*
Y3352800D01*
X4838700Y3365500D01*
X5397500D01*
X5524500Y3492500D01*
G01X6477000Y571500D02*
X5524500D01*
X5334000Y762000D01*
G01X5969000Y889000D02*
Y1036300D01*
X5377100Y1628200D01*
X5356800D01*
X5207000Y1778000D01*
G01X5016500Y1524000D02*
X5334000D01*
G01X5080000Y3048000D02*
Y2819400D01*
X5105400Y2794000D01*
X5461000D01*
X5588000Y2667000D01*
G01X8191500Y1968500D02*
X7429600D01*
X7302500Y1841400D01*
Y1587500D01*
X7112000Y1397000D01*
X6985000D01*
G01X6463000Y2413000D02*
X6730300D01*
X6750700Y2392600D01*
X6807700D01*
X6828100Y2413000D01*
X7620000D01*
X7747000Y2540000D01*
G01X6858000Y2794000D02*
X6921500Y2730500D01*
X7282200D01*
X7322900Y2771200D01*
X7409100D01*
X7449800Y2730500D01*
X7825800D01*
X7851200Y2705100D01*
Y2565400D01*
X7876600Y2540000D01*
X8128000D01*
G01X6604000Y3048000D02*
Y2943800D01*
X6690300Y2857500D01*
X6824400D01*
X6829500Y2862600D01*
X6886500D01*
X6891600Y2857500D01*
X7607300D01*
X7620000Y2870200D01*
Y3352800D01*
X7632700Y3365500D01*
X7937500D01*
X8128000Y3556000D01*
G01X6858000Y2667000D02*
X7366000D01*
G01X8255000Y1270000D02*
Y1447800D01*
X8229600Y1473200D01*
X8226500D01*
X8186400Y1513300D01*
Y1570300D01*
X8226500Y1610400D01*
X8229600D01*
X8255000Y1635800D01*
Y1884700D01*
X8295700Y1925400D01*
Y2011600D01*
X8255000Y2052300D01*
Y2159000D01*
X8953500Y2857500D01*
X9461500D01*
G54D17*
G01X635000Y1058900D02*
Y1143000D01*
G01X550900D02*
X635000D01*
G01D02*
Y1227100D01*
G01Y1143000D02*
X1397000D01*
G01Y1058900D02*
Y1143000D01*
G01D02*
X1481100D01*
G01X1397000D02*
Y1227100D01*
G01X1778000Y3302000D02*
Y1270000D01*
X2032000Y1016000D01*
G01X1524000Y3302000D02*
X1778000D01*
G01X2201900Y1016000D02*
X2286000D01*
G01Y931900D02*
Y1016000D01*
G01D02*
X2794000D01*
G01X2286000Y1651000D02*
Y1016000D01*
G01Y1651000D02*
X2370100D01*
G01X2201900D02*
X2286000D01*
G01D02*
Y1735100D01*
G01X4191000Y1968500D02*
X4127600D01*
X3683100Y1524000D01*
X2501900D01*
X2476500Y1498600D01*
Y1143000D01*
G01X2794000Y762000D02*
X2878100D01*
G01X2709900D02*
X2794000D01*
G01Y677900D02*
Y762000D01*
G01Y1016000D02*
Y762000D01*
G01X4445000Y508000D02*
X3416300D01*
X3365500Y558800D01*
G01X8572500Y1333500D02*
Y1052100D01*
X8472900Y952500D01*
X7175000D01*
X7132100Y909600D01*
X7086100D01*
X7053700Y942000D01*
Y1010800D01*
X6916400Y1148100D01*
X6702500D01*
X6692300Y1137900D01*
X6450900D01*
X6444500Y1131500D01*
X6382500D01*
X6376100Y1137900D01*
X5974100D01*
X5524500Y1587500D01*
Y1714500D01*
X5392400Y1846600D01*
X5244400D01*
X5238000Y1853000D01*
X5176000D01*
X5164500Y1841500D01*
X4127500D01*
G01D02*
X4097000Y1811000D01*
Y1745000D01*
G01X3937000Y2349500D02*
X4033800D01*
G01X3840200D02*
X3937000D01*
G01D02*
Y2446300D01*
G01Y2252700D02*
Y2349500D01*
G01X7366000Y1079500D02*
X7112000D01*
X6979900Y1211600D01*
X6676100D01*
X6671000Y1206500D01*
X5995400D01*
X5588000Y1613900D01*
Y1740900D01*
X5418800Y1910100D01*
X5400800D01*
X5342400Y1968500D01*
X4191000D01*
G01X5588000Y3048000D02*
X5684800D01*
G01X5491200D02*
X5588000D01*
G01Y2951200D02*
Y3048000D01*
G01D02*
Y3152200D01*
G01X6731000Y1549400D02*
X6756400Y1524000D01*
X6795700D01*
X6813500Y1541800D01*
G01Y1941800D02*
X6794500Y1922800D01*
Y1560800D01*
X6813500Y1541800D01*
G01X6477000Y3129400D02*
Y2636500D01*
X6515100Y2598400D01*
X6771600D01*
G01X6779200Y2461200D02*
Y2523500D01*
X6771600Y2531100D01*
Y2598400D01*
G01X6783100Y1967200D02*
X6808500Y1941800D01*
X6813500D01*
G01X7112000Y3048000D02*
X7208800D01*
G01X7015200D02*
X7112000D01*
G01D02*
Y3144800D01*
G01Y2951200D02*
Y3048000D01*
G01X8678900Y889000D02*
X8763000D01*
G01Y1524000D02*
X8572500Y1333500D01*
G01X8763000Y1524000D02*
X8671500D01*
G01D02*
X8653700Y1541800D01*
X8255000D01*
G01X8763000Y889000D02*
Y973100D01*
G01Y804900D02*
Y889000D01*
G01X8890000D02*
X8953500D01*
Y571500D01*
X9652000D01*
G01X8890000Y889000D02*
X8763000D01*
G01X9398000Y1397000D02*
Y762000D01*
G01X8890000Y889000D02*
Y1524000D01*
G01X8763000D02*
Y1608100D01*
G01Y1439900D02*
Y1524000D01*
G01D02*
X8890000D01*
G01X9461500Y3111500D02*
X9626600D01*
X9715500Y3022600D01*
Y1676400D01*
X9690100Y1651000D01*
X9423400D01*
X9398000Y1625600D01*
Y1397000D01*
G01X9461500Y3429000D02*
Y3111500D01*
G01X10160000Y762000D02*
X10244100D01*
G01X10160000D02*
Y846100D01*
G01Y677900D02*
Y762000D01*
G01X9567900D02*
X9652000D01*
G01Y571500D02*
Y762000D01*
G01D02*
Y1397000D01*
G01X10160000Y762000D02*
X9652000D01*
G01Y1397000D02*
X9736100D01*
G01X9567900D02*
X9652000D01*
G01D02*
Y1481100D01*
M02*
