G04 ================== begin FILE IDENTIFICATION RECORD ==================*
G04 Layout Name:  c:/Users/user/Desktop/work/avrusb500/micro_usb.brd*
G04 Film Name:    design*
G04 File Format:  Gerber RS274X*
G04 File Origin:  Cadence Allegro 16.6-S034*
G04 Origin Date:  Fri Jul 19 12:48:58 2019*
G04 *
G04 Layer:  VIA CLASS/BOTTOM*
G04 Layer:  VIA CLASS/TOP*
G04 Layer:  ROUTE KEEPIN/ALL*
G04 Layer:  REF DES/SILKSCREEN_TOP*
G04 Layer:  REF DES/SILKSCREEN_BOTTOM*
G04 Layer:  PIN/BOTTOM*
G04 Layer:  PIN/TOP*
G04 Layer:  PACKAGE KEEPIN/ALL*
G04 Layer:  PACKAGE GEOMETRY/PIN_NUMBER*
G04 Layer:  PACKAGE GEOMETRY/SILKSCREEN_TOP*
G04 Layer:  PACKAGE GEOMETRY/SILKSCREEN_BOTTOM*
G04 Layer:  PACKAGE GEOMETRY/SOLDERMASK_TOP*
G04 Layer:  PACKAGE GEOMETRY/SOLDERMASK_BOTTOM*
G04 Layer:  PACKAGE GEOMETRY/PASTEMASK_TOP*
G04 Layer:  PACKAGE GEOMETRY/PASTEMASK_BOTTOM*
G04 Layer:  MANUFACTURING/PHOTOPLOT_OUTLINE*
G04 Layer:  ETCH/BOTTOM*
G04 Layer:  ETCH/TOP*
G04 Layer:  BOARD GEOMETRY/OUTLINE*
G04 Layer:  BOARD GEOMETRY/SILKSCREEN_TOP*
G04 Layer:  BOARD GEOMETRY/SILKSCREEN_BOTTOM*
G04 Layer:  BOARD GEOMETRY/SOLDERMASK_TOP*
G04 Layer:  BOARD GEOMETRY/SOLDERMASK_BOTTOM*
G04 *
G04 Offset:    (0.000 0.000)*
G04 Mirror:    No*
G04 Mode:      Positive*
G04 Rotation:  0*
G04 FullContactRelief:  No*
G04 UndefLineWidth:     0.000*
G04 ================== end FILE IDENTIFICATION RECORD ====================*
%FSLAX55Y55*MOMM*%
%IR0*IPPOS*OFA0.00000B0.00000*MIA0B0*SFA1.00000B1.00000*%
%ADD21R,1.72X.4*%
%ADD11C,1.321*%
%ADD10R,1.321X1.321*%
%ADD17C,1.575*%
%ADD18R,1.575X1.575*%
%ADD14O,.457X1.778*%
%ADD16O,1.778X.457*%
%ADD13R,.457X1.778*%
%ADD15R,1.778X.457*%
%ADD19O,1.9X1.2*%
%ADD20R,1.72X1.1*%
%ADD12C,.61*%
%ADD22C,.203*%
%ADD23C,.254*%
%ADD24C,.381*%
%ADD34C,1.122*%
%ADD35C,1.58*%
%ADD25C,1.834*%
%ADD26C,2.088*%
%ADD30R,.766X1.465*%
%ADD36O,2.412X1.712*%
%ADD33R,1.58X1.58*%
%ADD28R,1.832X1.832*%
%ADD29R,2.088X2.086*%
%ADD27R,2.088X2.088*%
%ADD37R,.766X.766*%
%ADD32R,.766X.894*%
%ADD31R,.894X.766*%
G75*
%LPD*%
G75*
G36*
G01X300100Y300100D02*
Y3699900D01*
X7812100D01*
G02X7819300Y3682500I3J-10188D01*
G01X7778900Y3642000D01*
X7775900Y3643000D01*
G03X7663700Y3594300I-28902J-87011D01*
G03Y3517700I83300J-38300D01*
G03X7834000Y3584900I83249J38416D01*
G01X7833500Y3586500D01*
G03X7805500Y3626600I-86461J-30546D01*
G02X7812000Y3644700I6455J7899D01*
G01X8063000D01*
G02X8069500Y3626600I45J-10201D01*
G03X8041000Y3527100I58511J-70591D01*
G01X8041700Y3525000D01*
G03X8096900Y3469700I86323J30967D01*
G01X8099100Y3469000D01*
G03X8198600Y3497500I28909J87011D01*
G02X8199000Y3497900I7401J-7001D01*
G03X8218700Y3569500I-71005J58047D01*
G02X8228800Y3581200I10086J1503D01*
G01X8293300D01*
Y3673500D01*
X8284300Y3682500D01*
G02X8291500Y3699900I7197J7212D01*
G01X10699900D01*
Y300100D01*
X300100D01*
G37*
%LPC*%
G75*
G36*
G01X5583000Y3563100D02*
G02X5495600Y3405500I-58527J-70578D01*
G01X5493500Y3406200D01*
G02X5582600Y3563500I31046J86299D01*
G03X5583000Y3563100I7377J6977D01*
G37*
G36*
G01X4450400Y3563500D02*
G02X4470200Y3409200I58088J-70966D01*
G02X4450000Y3563100I38309J83304D01*
G03X4450400Y3563500I-6977J7377D01*
G37*
G36*
G01X7140900Y3342000D02*
G02X7053500Y3499600I-28873J87022D01*
G03X7053900Y3500000I-6977J7377D01*
G02X7170100I58100J-71000D01*
G03X7170500Y3499600I7377J6977D01*
G02X7199000Y3400100I-58511J-70591D01*
G01X7198300Y3398000D01*
G02X7143000Y3342700I-86300J31000D01*
G01X7140900Y3342000D01*
G37*
G36*
G01X10548500Y3487100D02*
G02X10394200Y3467300I-70966J-58088D01*
G02X10548100Y3487500I83304J-38309D01*
G03X10548500Y3487100I7377J6977D01*
G37*
G36*
G01X4864300Y3263700D02*
X4470200D01*
Y3340300D01*
X5324500D01*
X5337600Y3327200D01*
X4864300D01*
Y3263700D01*
G37*
G36*
G01X1453000Y3243900D02*
G02X1496100Y3214700I70866J58191D01*
G02X1453400Y3243500I27856J87355D01*
G03X1453000Y3243900I-7377J-6977D01*
G37*
G36*
G01X8416600Y3198500D02*
G02X8358500Y3140400I28900J-87000D01*
G01X8359200Y3142500D01*
G02X8414500Y3197800I86300J-31000D01*
G01X8416600Y3198500D01*
G37*
G36*
G01X7182600Y2989500D02*
G02Y3106500I-70600J58500D01*
G03X7183000Y3106100I7377J6977D01*
G02Y2989900I-71000J-58100D01*
G03X7182600Y2989500I6977J-7377D01*
G37*
G36*
G01X6659100Y2959300D02*
G02X6565700Y2950900I-55055J88704D01*
G02X6659800Y2959800I38286J97108D01*
G03X6659100Y2959300I5581J-8553D01*
G37*
G36*
G01X4860200Y2949300D02*
G02X4864300Y3145100I-34183J98659D01*
G02X4860800Y2949600I-38322J-97095D01*
G03X4860200Y2949300I4227J-9204D01*
G37*
G36*
G01X4419800Y3009700D02*
Y2904700D01*
X4406700Y2917800D01*
Y3086300D01*
X4467600D01*
Y3152400D01*
X4676400D01*
Y2943600D01*
X4467600D01*
Y3009700D01*
X4419800D01*
G37*
G36*
G01X3784800Y2755700D02*
X2757800D01*
X2628700Y2884800D01*
Y3338200D01*
X2735000Y3444500D01*
X2853000D01*
X2957200Y3340300D01*
X3091700D01*
G02Y3263700I83300J-38300D01*
G01X2925400D01*
X2900900Y3288200D01*
G03X2883700Y3283100I-7220J-7203D01*
G02X2832300Y3218700I-89716J18894D01*
G01Y3004300D01*
G02X2877300Y2959300I-38300J-83300D01*
G01X3784800D01*
Y2882700D01*
X2877300D01*
G02X2852500Y2850400I-83310J38295D01*
G03X2859000Y2832300I6455J-7899D01*
G01X3784800D01*
Y2755700D01*
G37*
G36*
G01X6858800Y2737900D02*
X6857800D01*
G02X6803400Y2806700I226J56086D01*
G03X6793400Y2819200I-9951J2289D01*
G01X6674400D01*
X6661300Y2832300D01*
X6817000D01*
G02X6858800Y2737900I41000J-38300D01*
G37*
G36*
G01X6863300Y2722900D02*
G02X6817000Y2628700I-5308J-55869D01*
G02X6862200Y2722900I41000J38271D01*
G01X6863300D01*
G37*
G36*
G01X7457500Y2672500D02*
G02X7282700Y2628700I-91521J-5453D01*
G01X7170700D01*
X7200700Y2658700D01*
Y2895800D01*
X7277300D01*
Y2732000D01*
G03X7295400Y2725500I10201J-45D01*
G02X7457500Y2672500I70576J-58535D01*
G37*
G36*
G01X5559100Y2754000D02*
G02X5501000Y2695900I28900J-87000D01*
G01X5501700Y2698000D01*
G02X5557000Y2753300I86300J-31000D01*
G01X5559100Y2754000D01*
G37*
G36*
G01X4642600Y2608500D02*
G02X4501400I-70600J58500D01*
G03X4501300Y2608600I-7227J-7127D01*
G02X4488700Y2705300I70700J58383D01*
G02X4583600Y2757900I83274J-38333D01*
G02X4642600Y2725500I-11544J-90941D01*
G03X4642800Y2725200I8548J5482D01*
G02X4642900Y2608900I-70810J-58211D01*
G03X4642600Y2608500I8004J-6315D01*
G37*
G36*
G01X7819200Y2483400D02*
G02X7718100Y2453000I-72145J56616D01*
G01X7716000Y2453700D01*
G02X7660700Y2509000I31000J86300D01*
G01X7660000Y2511100D01*
G02X7797100Y2616800I87018J28896D01*
G03X7797300Y2616600I7162J6962D01*
G02X7819200Y2483400I-50294J-76669D01*
G37*
G36*
G01X6741400Y2354300D02*
X6734800D01*
X6714400Y2374700D01*
X6504000D01*
G02X6440100Y2361800I-40985J38307D01*
G01Y2379400D01*
G02X6486200Y2446400I22901J33602D01*
G03X6502100Y2453300I5800J8405D01*
G02X6504000Y2451300I-39725J-39642D01*
G01X6741400D01*
Y2354300D01*
G37*
G36*
G01X10576000Y2329400D02*
X10506000D01*
G02Y2500600I0J85600D01*
G01X10576000D01*
G02X10621000Y2342200I0J-85592D01*
G03X10620300Y2341800I4714J-9062D01*
G02X10576000Y2329400I-44369J73181D01*
G37*
G36*
G01X10206000D02*
X10136000D01*
G02Y2500600I0J85600D01*
G01X10206000D01*
G02X10235000Y2495500I-102J-85582D01*
G03X10235800Y2495200I3984J9408D01*
G02X10251000Y2342200I-29820J-80218D01*
G03X10250300Y2341800I4714J-9062D01*
G02X10206000Y2329400I-44369J73181D01*
G37*
G36*
G01X3957300Y2260100D02*
G02X3917600Y2439100I-20277J89405D01*
G02X4022000Y2315100I19400J-89615D01*
G02X3995500Y2278900I-84984J34412D01*
G03X3995100Y2278500I6977J-7377D01*
G02X3958000Y2260200I-58082J70994D01*
G03X3957300Y2260100I1090J-10132D01*
G37*
G36*
G01X4602000Y2311000D02*
G02X4660500Y2252500I97000J38500D01*
G01X4659300Y2253000D01*
G02X4602500Y2309800I39700J96500D01*
G01X4602000Y2311000D01*
G37*
G36*
G01X6164400Y2208300D02*
X6056000D01*
X5979400Y2284900D01*
X6087800D01*
X6164400Y2208300D01*
G37*
G36*
G01X6225100Y2147600D02*
G02X6190000Y2180500I-2094J32939D01*
G01Y2182700D01*
X6225100Y2147600D01*
G37*
G36*
G01X4894500Y2108000D02*
X4817900D01*
Y2141600D01*
X4860900Y2184600D01*
X4969300D01*
X4894500Y2109800D01*
Y2108000D01*
G37*
G36*
G01X5085300Y2146100D02*
G02X5029000Y2202400I-56100J200D01*
G01X5030000D01*
G02X5085300Y2147100I-800J-56100D01*
G01Y2146100D01*
G37*
G36*
G01X6144200Y2134800D02*
G02X6174900Y2089400I87J-33021D01*
G01X6129500Y2134800D01*
X6144200D01*
G37*
G36*
G01X4535400Y1923800D02*
X4343200D01*
Y2143100D01*
X4232600Y2253700D01*
G02X4115100Y2277800I-41578J95772D01*
G03X4114900Y2278000I-7303J-7103D01*
G02X4108600Y2285400I76266J71311D01*
G02X4152700Y2446600I82422J64084D01*
G02X4229300I38300J-97100D01*
G02X4288000Y2311000I-38318J-97093D01*
G01X4287000Y2308500D01*
G02X4267100Y2278000I-96053J40929D01*
G03X4274500Y2260800I7397J-7010D01*
G01X4333900D01*
X4389300Y2205400D01*
G03X4406700Y2212600I7212J7197D01*
G01Y2252400D01*
G02X4483300I38300J97100D01*
G01Y2212600D01*
G03X4500700Y2205400I10188J-3D01*
G01X4556100Y2260800D01*
X4587900D01*
X4633600Y2215100D01*
X4635700D01*
G02X4640900Y2214800I-627J-56083D01*
G03X4641800Y2214700I1577J10091D01*
G02X4673800Y2118000I-6306J-55731D01*
G01Y1923800D01*
X4597200D01*
Y2118000D01*
G02X4579800Y2152700I38339J40937D01*
G03X4562400Y2158700I-10137J-1166D01*
G01X4535400Y2131700D01*
Y1923800D01*
G37*
G36*
G01X4224900D02*
G02X4182200Y1913100I-33891J44698D01*
G01X4181800Y1913200D01*
G02X4167600Y1917600I9340J55257D01*
G02X4158400Y1922900I23264J51018D01*
G01X4158100Y1923100D01*
G02X4246300Y1977700I32898J45395D01*
G01X4246600Y1976100D01*
X4298900Y1923800D01*
X4224900D01*
G37*
G36*
G01X9298200Y1954900D02*
G02X9122900Y1933200I-90678J13613D01*
G02X9298200Y1955000I84618J35284D01*
G03Y1954900I10086J-50D01*
G37*
G36*
G01X8205000Y1877800D02*
G02X8108200Y1930200I-13486J90697D01*
G02Y2006800I83300J38300D01*
G02X8205000Y2059200I83314J-38297D01*
G03X8205100I50J10086D01*
G02Y1877800I-13600J-90700D01*
G03X8205000I-50J-10086D01*
G37*
G36*
G01X3962000Y1739700D02*
X3806800D01*
X3771700Y1774800D01*
Y1930200D01*
X3747600D01*
G03X3737600Y1917700I-49J-10211D01*
G02X3642000Y1866700I-54633J-12691D01*
G01X2877300D01*
G02Y1943300I-83300J38300D01*
G01X3388100D01*
G03X3395300Y1960700I3J10188D01*
G01X3390700Y1965300D01*
Y2139200D01*
G02X3467300I38300J83300D01*
G01Y2006800D01*
X3633500D01*
X3638600Y2011900D01*
X3727400D01*
X3732500Y2006800D01*
X3813200D01*
X3848300Y1971700D01*
Y1816300D01*
X4003700D01*
X4021200Y1798800D01*
X3962000Y1739700D01*
G37*
G36*
G01X3932700Y1710400D02*
X3904300Y1682000D01*
G02X3932700Y1710400I32747J-4347D01*
G37*
G36*
G01X5016700Y1658400D02*
X5016300D01*
G02X4960400Y1714300I200J56100D01*
G01Y1714700D01*
G02X5016300Y1770600I56100J-200D01*
G01X5016700D01*
G02Y1658400I-200J-56100D01*
G37*
G36*
G01X5819500Y1676200D02*
G02X5722400Y1714200I-40997J38301D01*
G02X5828400Y1740100I56096J279D01*
G01X5978700D01*
G03X5988600Y1752800I10J10201D01*
G01X6143600D01*
X6179400Y1788600D01*
G02X6144200Y1746000I-35149J-6799D01*
G01X6091800D01*
Y1737700D01*
X6094700Y1736400D01*
G02X6097600Y1734800I-17035J-34305D01*
G01X6177300D01*
Y1678100D01*
X6175400Y1676200D01*
X5819500D01*
G37*
G36*
G01X3837000Y1614700D02*
X3782800Y1560500D01*
X3644600Y1698700D01*
Y1737000D01*
G02X3722700Y1738400I38328J40989D01*
G01X3721200Y1737000D01*
Y1730500D01*
X3837000Y1614700D01*
G37*
G36*
G01X3701600Y1479300D02*
X3695600D01*
G02X3721800Y1499500I30534J-12513D01*
G01X3701600Y1479300D01*
G37*
G36*
G01X5689900Y1475700D02*
Y1448800D01*
X5543300Y1595400D01*
Y1722400D01*
X5400300Y1865400D01*
X5382300D01*
X5323900Y1923800D01*
X5097600D01*
Y2070300D01*
X5730900D01*
X5816800Y1984400D01*
Y1882500D01*
G02X5819500Y1803200I-38300J-41000D01*
G02X5724600Y1857200I-41027J38287D01*
G02X5743500Y1885300I53831J-15801D01*
G03X5740200Y1903000I-6359J7972D01*
G01Y1952600D01*
X5699100Y1993700D01*
X5405000D01*
G03X5397800Y1976300I26J-10200D01*
G01X5419300Y1954800D01*
X5437300D01*
X5632700Y1759400D01*
Y1632400D01*
X5689800Y1575300D01*
Y1475800D01*
X5689900Y1475700D01*
G37*
G36*
G01X6951400Y1419900D02*
G02X6971300Y1358700I33599J-22910D01*
G02X6951400Y1374100I13717J38283D01*
G01X6933800D01*
G02Y1419900I51200J22900D01*
G01X6951400D01*
G37*
G36*
G01X7026000Y1358700D02*
G02X7005600Y1344800I-41021J38283D01*
G01X7096100Y1435300D01*
X7204500D01*
X7127900Y1358700D01*
X7026000D01*
G37*
G36*
G01X6978700Y1341300D02*
G02X6979700Y1341100I-1496J-10081D01*
G02X6944000Y1358700I5353J55865D01*
G03X6978700Y1341300I40937J38339D01*
G37*
G36*
G01X10576000Y1309400D02*
X10506000D01*
G02Y1480600I0J85600D01*
G01X10576000D01*
G02X10620300Y1468200I-69J-85581D01*
G03X10621000Y1467800I5414J8662D01*
G02X10576000Y1309400I-45000J-72808D01*
G37*
G36*
G01X9489600Y1305400D02*
X9306400D01*
Y1488600D01*
X9353300D01*
Y1504900D01*
X9369600Y1488600D01*
X9489600D01*
Y1305400D01*
G37*
G36*
G01X673300Y1480300D02*
G02X596700I-38300J-83300D01*
G02X673300I38300J-83310D01*
G37*
G36*
G01X5689900Y1369600D02*
Y1261200D01*
X5440900Y1510200D01*
G03X5423700Y1505100I-7220J-7203D01*
G02X5250700Y1485700I-89710J18924D01*
G01X5097600D01*
Y1562300D01*
X5250700D01*
G02X5257500Y1574600I83417J-38087D01*
G03X5255500Y1588100I-8497J5639D01*
G02X5251700Y1596000I6385J7935D01*
G01Y1679100D01*
X5208900Y1721900D01*
X5206800D01*
G02X5263100Y1778200I200J56100D01*
G01Y1776100D01*
X5299500Y1739700D01*
X5373200D01*
X5393500Y1719400D01*
Y1666000D01*
X5689900Y1369600D01*
G37*
G36*
G01X7277300Y1186700D02*
G02X7304900Y1206200I-38209J83363D01*
G01X7304800D01*
G02X7277300Y1186700I-65875J63760D01*
G37*
G36*
G01X8293300Y1353300D02*
G02X8168400Y1239800I-38322J-83302D01*
G01X8168000Y1241100D01*
G02X8197100Y1341100I87022J28911D01*
G02X8216700Y1353300I57865J-71120D01*
G02X8293300I38300J-83303D01*
G37*
G36*
G01X2521200Y1176900D02*
G02X2431800I-44700J-33900D01*
G01Y1187700D01*
X2442600D01*
G02X2510400I33900J-44700D01*
G01X2521200D01*
Y1176900D01*
G37*
G36*
G01X7277300Y1034800D02*
X7093500D01*
X6961400Y1166900D01*
X6694600D01*
X6689500Y1161800D01*
X6418300D01*
Y1251200D01*
X6652500D01*
X6657600Y1256300D01*
X6998400D01*
X7130500Y1124200D01*
X7277300D01*
Y1034800D01*
G37*
G36*
G01X7399900D02*
G02X7332100I-33900J44700D01*
G02X7359700Y1135200I33895J44676D01*
G03X7360600Y1135300I-677J10191D01*
G02X7399900Y1034800I5385J-55828D01*
G37*
G36*
G01X2123600Y924400D02*
X1940400D01*
Y1107600D01*
X2060400D01*
X2140500Y1187700D01*
X2183000D01*
Y1098300D01*
X2177500D01*
X2123600Y1044400D01*
Y924400D01*
G37*
G36*
G01X4930400Y990800D02*
G02X4848500Y914100I-40902J-38402D01*
G01X4782600D01*
Y1014500D01*
X4806400Y990700D01*
X4848500D01*
G02X4924400Y996300I40983J-38307D01*
G02X4930400Y990800I-34811J-43999D01*
G37*
G36*
G01X6040100Y946900D02*
G02X5930700Y972300I-71092J-57900D01*
G01Y981400D01*
X5937100Y975000D01*
X5940100Y976000D01*
G02X6040100Y946900I28911J-87022D01*
G37*
G36*
G01X4859200Y761800D02*
X4782600D01*
Y886200D01*
X4800800Y868000D01*
Y841400D01*
X4803800Y838400D01*
X4859200D01*
Y761800D01*
G37*
G36*
G01X10501000Y790900D02*
G02X10442900Y849000I-87000J-28900D01*
G01X10445000Y848300D01*
G02X10500300Y793000I-31000J-86300D01*
G01X10501000Y790900D01*
G37*
G36*
G01X4201000Y673300D02*
G02X4153000I-24000J22702D01*
G01X4201000D01*
G37*
G36*
G01X4281000D02*
G02X4233000I-24000J22650D01*
G01X4281000D01*
G37*
G36*
G01X4041100D02*
G02X3993000I-24050J22650D01*
G01X4041100D01*
G37*
G36*
G01X4361100D02*
G02X4313000I-24050J22649D01*
G01X4361100D01*
G37*
G36*
G01X6769300Y660200D02*
X6524600D01*
X6439800Y745000D01*
Y1070000D01*
X6487600Y1117800D01*
X6683400D01*
X6729100Y1072100D01*
X6731200D01*
G02X6775800Y982200I-188J-56107D01*
G03X6778600Y967400I8136J-6126D01*
G02X6769300Y805700I-47598J-78380D01*
G01Y660200D01*
G37*
G36*
G01X4481800Y596700D02*
X4372400D01*
Y635100D01*
G02X4378100Y656900I44714J-46D01*
G01X4378800Y658100D01*
Y666400D01*
G03X4376100Y673300I-10183J-7D01*
G01X4524700D01*
G02X4472600Y669900I-27639J22652D01*
G03X4455400Y662500I-7007J-7403D01*
G01Y658100D01*
X4456100Y656900D01*
G02X4461800Y635100I-39014J-21846D01*
G01Y616700D01*
X4481800Y596700D01*
G37*
G36*
G01X3970000Y658800D02*
G02X3904000I-33000J-23800D01*
G01Y680400D01*
G02X3970000I33000J-45414D01*
G01Y658800D01*
G37*
G36*
G01X4268900Y578100D02*
X4058700D01*
Y666300D01*
G03X4055900Y673300I-10184J-14D01*
G01X4135300D01*
Y666900D01*
G03X4145500Y656700I10198J-2D01*
G02X4151000Y655100I14J-10204D01*
G03X4210000Y660500I26007J40860D01*
G02X4224000I7000J-7439D01*
G03X4290000I33000J35450D01*
G02X4304000I7000J-7439D01*
G03X4333700Y647600I33042J35433D01*
G02X4343200Y637400I-693J-10169D01*
G01Y612500D01*
G03X4331400Y596700I38350J-40948D01*
G01X4285400D01*
G03X4280300Y591600I-7J-5093D01*
G02X4278800Y588000I-5107J15D01*
G01X4268900Y578100D01*
G37*
G36*
G01X5505700Y553000D02*
X5497300Y544600D01*
X5365900Y676000D01*
X5362900Y675000D01*
G02X5295700Y845300I-28784J87051D01*
G01Y911200D01*
X5292700Y914200D01*
X5097600D01*
Y990800D01*
X5324500D01*
X5372300Y943000D01*
Y845300D01*
G02X5421000Y733100I-38311J-83298D01*
G01X5420000Y730100D01*
X5505700Y644500D01*
Y553000D01*
G37*
G36*
G01X8823100Y704300D02*
G02X8734100Y548000I-60081J-69278D01*
G01X8732000Y548700D01*
G02X8672300Y621400I30989J86310D01*
G03Y621500I-10086J50D01*
G02X8671900Y624800I90800J12680D01*
G02X8823100Y704300I91129J10215D01*
G37*
G36*
G01X6769300Y533200D02*
X6548400D01*
X6565700Y550500D01*
Y609800D01*
X6769300D01*
Y533200D01*
G37*
G36*
G01X3421000Y566700D02*
G02X3357600Y503300I-55500J-7900D01*
G01X3356300Y503500D01*
G02X3420800Y568000I9200J55300D01*
G01X3421000Y566700D01*
G37*
G36*
G01X4499400Y494500D02*
G02X4411100Y463300I-54434J13504D01*
G01X4058700D01*
Y552700D01*
X4328400D01*
G02X4318300Y541200I-10099J-1316D01*
G01X4148500D01*
X4144000Y545700D01*
G03X4135300Y542100I-3602J-3609D01*
G01Y485800D01*
X4138300Y482800D01*
X4380400D01*
G03X4390400Y495300I49J10211D01*
G02X4399400Y540600I54615J12693D01*
G01X4400300Y541900D01*
Y551800D01*
X4399400Y552700D01*
X4411100D01*
G02X4489700Y541900I33900J-44700D01*
G02X4499600Y495300I-44718J-33852D01*
G03X4499400Y494500I9804J-2876D01*
G37*
G36*
G01X5289000Y336300D02*
X2902500D01*
X2883000Y355800D01*
X3240000D01*
G03X3247200Y373200I3J10188D01*
G01X3194700Y425700D01*
X3303100D01*
X3309500Y419300D01*
X5372000D01*
X5289000Y336300D01*
G37*
G54D34*
X5016500Y1524000D03*
X6477000Y571500D03*
G54D35*
X9652000Y1397000D03*
X2286000Y1016000D03*
X9652000Y762000D03*
X2794000D03*
G54D25*
X9461500Y3429000D03*
X6096000D03*
X4191000Y3302000D03*
X1778000D03*
X508000D03*
X9461500Y3111500D03*
X5588000Y3048000D03*
X10477500Y2857500D03*
X9461500D03*
X6350000Y2667000D03*
X8128000Y2540000D03*
X2540000Y1651000D03*
X8763000Y1270000D03*
X1397000Y889000D03*
G54D26*
X6858000Y3048000D03*
X6350000D03*
X5334000D03*
X5080000D03*
G54D30*
X4856200Y1997050D03*
G54D36*
X10171000Y1395000D03*
G54D33*
X2286000Y1651000D03*
X8763000Y1524000D03*
X1397000Y1143000D03*
X635000D03*
X8763000Y889000D03*
X10160000Y762000D03*
G54D28*
X3429000Y2540000D03*
X9398000Y762000D03*
X3048000D03*
G54D29*
X4953000Y2349500D03*
G54D27*
X6096000Y3048000D03*
G54D37*
X5016500Y952500D03*
G54D32*
X8255000Y1778000D03*
X7302500D03*
X2144700Y635000D03*
G54D31*
X9715500Y1905000D03*
%LPD*%
G75*
G36*
G01X3664600Y1568700D02*
X3625600D01*
G02X3618400Y1586100I17J10197D01*
G01X3627600Y1595300D01*
G03X3630600Y1602500I-7209J7229D01*
G02X3640800Y1612700I10188J12D01*
G01X3690500D01*
X4071500Y1993700D01*
X4077300D01*
G02X4080900Y1985000I-17J-5102D01*
G01X3664600Y1568700D01*
G37*
G36*
G01X3597000Y1739700D02*
G02Y1816300I-41000J38300D01*
G01X3622900D01*
G02X3632100Y1801800I-45J-10197D01*
G03Y1754200I50800J-23800D01*
G02X3622900Y1739700I-9245J-4303D01*
G01X3597000D01*
G37*
G36*
G01X5174200Y490400D02*
X5292100D01*
G02X5299300Y473000I-26J-10200D01*
G01X5252000Y425700D01*
X5170500D01*
G02X5163300Y443100I-3J10188D01*
G01X5174200Y454000D01*
Y490400D01*
G37*
G36*
G01X5575500Y955700D02*
Y1004200D01*
G02X5592900Y1011400I10200J-26D01*
G01X5695200Y909100D01*
X5692200Y905500D01*
G03X5689800Y898900I7795J-6571D01*
G01Y866000D01*
G02X5672400Y858800I-10188J-3D01*
G01X5575500Y955700D01*
G37*
G36*
G01X5251700Y1225000D02*
Y1301600D01*
G02X5269100Y1308800I10197J-17D01*
G01X5481500Y1096400D01*
G03X5488700Y1093400I7221J7191D01*
G02X5498900Y1083200I6J-10194D01*
G01Y1002400D01*
G02X5481500Y995200I-10200J26D01*
G01X5251700Y1225000D01*
G37*
G36*
G01X6537600Y736800D02*
X6438000D01*
G02X6430800Y754200I26J10200D01*
G01X6487300Y810700D01*
G02X6504700Y803500I7200J-7226D01*
G01Y794300D01*
X6544800Y754200D01*
G02X6537600Y736800I-7197J-7212D01*
G37*
G36*
G01X6516400Y1038200D02*
X6519400Y1041200D01*
X6651600D01*
X6674900Y1017900D01*
Y1015800D01*
G03X6686200Y982200I56107J169D01*
G02X6683400Y967400I-8136J-6126D01*
G03X6692700Y805700I47598J-78380D01*
G01Y422300D01*
X6626200Y355800D01*
X6504000D01*
G02X6496800Y373200I-3J10188D01*
G01X6642300Y518700D01*
Y650900D01*
X6516400Y776800D01*
Y1038200D01*
G37*
G36*
G01X6795500Y1054300D02*
X6969100D01*
X7142700Y1227800D01*
G02X7158800Y1225500I7182J-7228D01*
G03X7200700Y1186700I80158J44539D01*
G01Y803300D01*
X7197700Y800300D01*
X6796000D01*
G02X6789500Y818400I-45J10201D01*
G03X6778600Y967400I-58500J70619D01*
G02X6775800Y982200I5336J8674D01*
G03X6769300Y1057000I-44793J33790D01*
G01Y1111400D01*
X6777200D01*
X6778700Y1109000D01*
G02X6785600Y1066800I-47721J-29467D01*
G03X6795500Y1054300I9951J-2289D01*
G37*
G36*
G01X6607100Y800300D02*
X6581300Y826100D01*
Y1054300D01*
X6666500D01*
G03X6676400Y1066800I-51J10211D01*
G02X6683300Y1109000I54621J12733D01*
G01X6684800Y1111400D01*
X6692700D01*
Y1057000D01*
G03X6686200Y982200I38293J-41010D01*
G02X6683400Y967400I-8136J-6126D01*
G03X6672500Y818400I47600J-78381D01*
G02X6666000Y800300I-6455J-7899D01*
G01X6607100D01*
G37*
G36*
G01X10087900Y1534400D02*
Y1549200D01*
X10292800D01*
Y1791500D01*
X10484900D01*
X10526000Y1832600D01*
Y2275600D01*
X10594100D01*
Y1534400D01*
X10087900D01*
G37*
G36*
G01X9916400D02*
Y1856500D01*
X10049200D01*
Y1832900D01*
X9978100D01*
Y1534400D01*
X9916400D01*
G37*
G54D10*
X635000Y1143000D03*
D03*
X1397000D03*
D03*
X2032000Y1016000D03*
D03*
X2286000Y1651000D03*
D03*
X3048000Y762000D03*
D03*
X3429000Y2540000D03*
D03*
X8763000Y889000D03*
D03*
Y1524000D03*
D03*
X9398000Y762000D03*
D03*
Y1397000D03*
D03*
X10160000Y762000D03*
D03*
G54D20*
X10171000Y1640000D03*
Y2170000D03*
G54D11*
X635000Y1397000D03*
D03*
X508000Y3302000D03*
D03*
X1397000Y889000D03*
D03*
X1778000Y3302000D03*
D03*
X1524000D03*
D03*
X2286000Y1016000D03*
D03*
X2540000Y1651000D03*
D03*
X2794000Y762000D03*
D03*
Y1905000D03*
D03*
X3429000Y2222500D03*
D03*
X2794000Y2921000D03*
D03*
X3175000Y3302000D03*
D03*
X2794000D03*
D03*
X4191000D03*
D03*
X4572000Y2667000D03*
D03*
X4508500Y3492500D03*
D03*
X5334000Y762000D03*
D03*
Y1524000D03*
D03*
X5588000Y2667000D03*
D03*
X5524500Y3492500D03*
D03*
X5969000Y889000D03*
D03*
X6350000Y2667000D03*
D03*
X6096000Y3429000D03*
D03*
X6731000Y889000D03*
D03*
X7239000Y1270000D03*
D03*
X7112000Y3429000D03*
D03*
X7366000Y2667000D03*
D03*
X7747000Y2540000D03*
D03*
Y3556000D03*
D03*
X8763000Y635000D03*
D03*
X8255000Y1270000D03*
D03*
X8763000D03*
D03*
X8191500Y1968500D03*
D03*
X8128000Y2540000D03*
D03*
X8445500Y3111500D03*
D03*
X8128000Y3556000D03*
D03*
X9207500Y1968500D03*
D03*
X9461500Y3111500D03*
D03*
Y2857500D03*
D03*
Y3429000D03*
D03*
X9652000Y762000D03*
D03*
Y1397000D03*
D03*
X10414000Y762000D03*
D03*
X10477500Y2857500D03*
D03*
Y3429000D03*
D03*
G54D12*
X2476500Y1143000D03*
D03*
X3365500Y558800D03*
D03*
X3937000Y635000D03*
D03*
X3682900Y1778000D03*
D03*
X3683000Y1905000D03*
D03*
X4097000Y1745000D03*
D03*
D03*
D03*
X4127500Y1841500D03*
D03*
X4191000Y1968500D03*
D03*
X4445000Y508000D03*
D03*
X4889500Y952400D03*
D03*
X4635500Y2159000D03*
D03*
X5207000Y1778000D03*
D03*
X5016500Y1714500D03*
D03*
Y1524000D03*
D03*
X5029200Y2146300D03*
D03*
X5588000Y3152200D03*
D03*
D03*
D03*
X6477000Y571500D03*
D03*
X5778500Y1714500D03*
D03*
Y1841500D03*
D03*
X6463000Y2413000D03*
D03*
X6731000Y1016000D03*
D03*
X6813500Y1541800D03*
D03*
D03*
D03*
X6985000Y1397000D03*
D03*
X6779200Y2461200D03*
D03*
X6771600Y2598400D03*
D03*
X6783100Y1967200D03*
D03*
X6813500Y1941800D03*
D03*
D03*
D03*
X6858000Y2667000D03*
D03*
Y2794000D03*
D03*
X7366000Y1079500D03*
D03*
X8255000Y1541800D03*
D03*
X8890000Y889000D03*
D03*
D03*
D03*
D03*
D03*
Y1524000D03*
D03*
D03*
D03*
X9652000Y571500D03*
D03*
D03*
D03*
G54D21*
X10171000Y1840000D03*
Y1775000D03*
Y2035000D03*
Y1970000D03*
Y1905000D03*
G54D22*
G01X920700Y1270000D02*
G02I-285700J0D01*
G01X698500Y3302000D02*
X635000D01*
G01X698500Y3175000D02*
Y3302000D01*
G01D02*
Y3429000D01*
G01X1333500Y3175000D02*
X698500D01*
G01Y3429000D02*
X1333500D01*
G01X1682700Y1016000D02*
G02I-285700J0D01*
G01X1333500Y3302000D02*
X1397000D01*
G01X1333500Y3429000D02*
Y3302000D01*
G01D02*
Y3175000D01*
G01X2444700Y1016000D02*
G02I-285700J0D01*
G01X2698700Y1651000D02*
G02I-285700J0D01*
G01X1968500Y3302000D02*
X1905000D01*
G01X2603500D02*
X2667000D01*
G01X1968500Y3175000D02*
Y3302000D01*
G01D02*
Y3429000D01*
G01X2603500D02*
Y3302000D01*
G01D02*
Y3175000D01*
G01D02*
X1968500D01*
G01Y3429000D02*
X2603500D01*
G01X3206700Y762000D02*
G02I-285700J0D01*
G01X3429000Y2698700D02*
G02X3746500Y2381300I100J-317400D01*
G02X3111500I-317500J0D01*
G02X3429000Y2698700I317400J0D01*
G01X2794000Y2095500D02*
Y2032000D01*
G01X2921000Y2095500D02*
X2794000D01*
G01D02*
X2667000D01*
G01D02*
Y2730500D01*
G01X2921000D02*
Y2095500D01*
G01X2794000Y2730500D02*
Y2794000D01*
G01X2667000Y2730500D02*
X2794000D01*
G01D02*
X2921000D01*
G01X3365500Y3302000D02*
X3302000D01*
G01X3365500Y3175000D02*
Y3302000D01*
G01D02*
Y3429000D01*
G01X4000500Y3175000D02*
X3365500D01*
G01Y3429000D02*
X4000500D01*
G01X3797300Y2222500D02*
Y2476500D01*
G01X5092700Y2222500D02*
X3797300D01*
G01X3937000Y2476500D02*
X4191000D01*
G01X3797300D02*
X3937000D01*
G01X4000500Y3302000D02*
X4064000D01*
G01X4000500Y3429000D02*
Y3302000D01*
G01D02*
Y3175000D01*
G01X4699000Y2476500D02*
X4953000D01*
G01X4445000D02*
X4699000D01*
G01X4191000D02*
X4445000D01*
G01X4762500Y2540000D02*
Y2667000D01*
G01X5397500Y2540000D02*
X4762500D01*
G01X4699000Y3365500D02*
Y3492500D01*
G01X5334000Y3365500D02*
X4699000D01*
G01X4432300Y3175000D02*
X5727700D01*
G01X4432300Y2921000D02*
Y3175000D01*
G01X4572000Y2921000D02*
X4432300D01*
G01X4826000D02*
X4572000D01*
G01X5080000D02*
X4826000D01*
G01X4762500Y2667000D02*
X4699000D01*
G01X4762500D02*
Y2794000D01*
G01D02*
X5397500D01*
G01X4699000Y3492500D02*
X4635500D01*
G01X4699000D02*
Y3619500D01*
G01D02*
X5334000D01*
G01X5588000Y1714500D02*
Y571500D01*
G01D02*
X5080000D01*
G01D02*
Y1714500D01*
G01D02*
X5588000D01*
G01X5092700Y2476500D02*
Y2222500D01*
G01X4953000Y2476500D02*
X5092700D01*
G01X5397500Y2667000D02*
Y2540000D01*
G01X5334000Y3492500D02*
Y3365500D01*
G01Y2921000D02*
X5080000D01*
G01X5588000D02*
X5334000D01*
G01X5727700D02*
X5588000D01*
G01X5397500Y2667000D02*
X5461000D01*
G01X5397500Y2794000D02*
Y2667000D01*
G01X5334000Y3492500D02*
X5397500D01*
G01X5334000Y3619500D02*
Y3492500D01*
G01X6921500Y635000D02*
X5778500D01*
G01D02*
Y1143000D01*
G01D02*
X6921500D01*
G01X5956300Y3175000D02*
X7251700D01*
G01X5956300Y2921000D02*
Y3175000D01*
G01X6096000Y2921000D02*
X5956300D01*
G01X6350000D02*
X6096000D01*
G01X6604000D02*
X6350000D01*
G01X6921500Y3302000D02*
X6286500D01*
G01D02*
Y3429000D01*
G01X5727700Y3175000D02*
Y2921000D01*
G01X6286500Y3429000D02*
X6223000D01*
G01X6286500D02*
Y3556000D01*
G01D02*
X6921500D01*
G01Y1143000D02*
Y635000D01*
G01X7175500Y2667000D02*
Y2540000D01*
G01D02*
X6540500D01*
G01D02*
Y2667000D01*
G01X6858000Y2921000D02*
X6604000D01*
G01X7112000D02*
X6858000D01*
G01X7251700D02*
X7112000D01*
G01X7175500Y2667000D02*
X7239000D01*
G01X6540500D02*
X6477000D01*
G01X7175500Y2794000D02*
Y2667000D01*
G01X6540500D02*
Y2794000D01*
G01D02*
X7175500D01*
G01X6921500Y3429000D02*
Y3302000D01*
G01Y3429000D02*
X6985000D01*
G01X6921500Y3556000D02*
Y3429000D01*
G01X7429500Y1397000D02*
X8064500D01*
G01X7429500Y1270000D02*
Y1397000D01*
G01Y1143000D02*
Y1270000D01*
G01X8064500Y1143000D02*
X7429500D01*
G01Y1270000D02*
X7366000D01*
G01X7251700Y3175000D02*
Y2921000D01*
G01X7874000Y3365500D02*
Y2730500D01*
G01X7747000Y3365500D02*
X7874000D01*
G01X7620000D02*
X7747000D01*
G01X7620000Y2730500D02*
Y3365500D01*
G01X7747000Y2730500D02*
X7620000D01*
G01X7874000D02*
X7747000D01*
G01Y3365500D02*
Y3429000D01*
G01Y2730500D02*
Y2667000D01*
G01X9048700Y762000D02*
G02I-285700J0D01*
G01X8064500Y1270000D02*
Y1143000D01*
G01Y1397000D02*
Y1270000D01*
G01D02*
X8128000D01*
G01X9017000Y1841500D02*
X8382000D01*
G01D02*
Y1968500D01*
G01X9048700Y1397000D02*
G02I-285700J0D01*
G01X8382000Y1968500D02*
X8318500D01*
G01X8382000D02*
Y2095500D01*
G01D02*
X9017000D01*
G01X8636000Y3111500D02*
X8572500D01*
G01X8636000Y2984500D02*
Y3111500D01*
G01D02*
Y3238500D01*
G01D02*
X9271000D01*
G01Y2984500D02*
X8636000D01*
G01X8128000Y2730500D02*
Y2667000D01*
G01Y3365500D02*
Y3429000D01*
G01X8255000Y2730500D02*
X8128000D01*
G01D02*
X8001000D01*
G01D02*
Y3365500D01*
G01D02*
X8128000D01*
G01D02*
X8255000D01*
G01D02*
Y2730500D01*
G01X9810700Y762000D02*
G02I-285700J0D01*
G01X9017000Y1968500D02*
Y1841500D01*
G01X9810700Y1397000D02*
G02I-285700J0D01*
G01X9017000Y1968500D02*
X9080500D01*
G01X9017000Y2095500D02*
Y1968500D01*
G01X9271000Y3111500D02*
X9334500D01*
G01X9271000Y3238500D02*
Y3111500D01*
G01D02*
Y2984500D01*
G01X10572700Y762000D02*
G02I-285700J0D01*
G01X9652000Y2857500D02*
X9588500D01*
G01X10287000Y2730500D02*
X9652000D01*
G01D02*
Y2857500D01*
G01D02*
Y2984500D01*
G01D02*
X10287000D01*
G01Y3302000D02*
X9652000D01*
G01D02*
Y3429000D01*
G01D02*
X9588500D01*
G01X9652000D02*
Y3556000D01*
G01D02*
X10287000D01*
G01Y2857500D02*
X10350500D01*
G01X10287000Y2984500D02*
Y2857500D01*
G01D02*
Y2730500D01*
G01Y3429000D02*
Y3302000D01*
G01Y3429000D02*
X10350500D01*
G01X10287000Y3556000D02*
Y3429000D01*
G54D13*
X3937000Y762000D03*
X4257000Y1611600D03*
X6223000Y1397000D03*
X6543000Y2246600D03*
G54D23*
G01X5778500Y1714500D02*
X6159500D01*
X6223000Y1778000D01*
Y2095500D01*
X5905500Y2413000D01*
Y3606800D01*
X5892800Y3619500D01*
X4076700D01*
X4064000Y3606800D01*
Y3060700D01*
X4051300Y3048000D01*
X3759200D01*
X3746500Y3035300D01*
Y2040400D01*
X3679700Y1973600D01*
X3654500D01*
X3649400Y1968500D01*
X3365500D01*
X3302000Y2032000D01*
Y3606800D01*
X3289300Y3619500D01*
X1409700D01*
X1397000Y3606800D01*
Y3238500D01*
X635000Y2476500D01*
Y1397000D01*
G01D02*
X508000D01*
Y3302000D01*
G01X2540000Y1651000D02*
Y1801800D01*
X2514600Y1827200D01*
X2170100D01*
X2144700Y1801800D01*
Y420700D01*
X2247900Y317500D01*
X6642100D01*
X6731000Y406400D01*
Y889000D01*
G01X5778500Y1841500D02*
Y1968500D01*
X5715000Y2032000D01*
X4224600D01*
X4219500Y2037100D01*
X4162500D01*
X4157400Y2032000D01*
X4055600D01*
X3674600Y1651000D01*
X2540000D01*
G01X3048000Y762000D02*
X3162300D01*
X3175000Y749300D01*
Y499600D01*
X3293600Y381000D01*
X6450400D01*
X6604000Y534600D01*
Y635000D01*
X6478100Y760900D01*
Y1054100D01*
X6503500Y1079500D01*
X6667500D01*
X6731000Y1016000D01*
G01X2794000Y1905000D02*
X3683000D01*
G01X4191000Y2349500D02*
Y2781300D01*
X4178300Y2794000D01*
X2773700D01*
X2667000Y2900700D01*
Y3322300D01*
X2750900Y3406200D01*
X2837100D01*
X2941300Y3302000D01*
X3175000D01*
G01X2794000D02*
Y2921000D01*
G01X4572000Y3048000D02*
X4381500D01*
Y2921000D01*
X2794000D01*
G01X3429000Y2540000D02*
Y3111500D01*
X3365500Y3175000D01*
Y3606800D01*
X3441700Y3683000D01*
X8229600D01*
X8255000Y3657600D01*
Y3302000D01*
X8445500Y3111500D01*
G01X3682900Y1778000D02*
Y1714600D01*
X4017000Y1380500D01*
Y762000D01*
G01X4097000D02*
Y469900D01*
X4122400Y444500D01*
X4411400D01*
X4416500Y439400D01*
X4473500D01*
X4478600Y444500D01*
X5110500D01*
X5135900Y469900D01*
Y2087900D01*
X5149800Y2101800D01*
X6078200D01*
G01X3937000Y635000D02*
X4820900D01*
Y1518900D01*
X5016500Y1714500D01*
G01X3937000Y762000D02*
Y635000D01*
G01X3867700Y694700D02*
Y837400D01*
G01X3682900Y1778000D02*
X4051200Y2146300D01*
X4551100D01*
X4607000Y2090400D01*
X4664000D01*
X4719900Y2146300D01*
X5029200D01*
G01X4017000Y1611600D02*
Y1725900D01*
X4013200Y1729700D01*
Y1752600D01*
X3987800Y1778000D01*
X3822700D01*
X3810000Y1790700D01*
Y1955800D01*
X3797300Y1968500D01*
X3716600D01*
X3711500Y1973600D01*
X3654500D01*
X3649400Y1968500D01*
X3441700D01*
X3429000Y1981200D01*
Y2222500D01*
G01X4635500Y2159000D02*
X4572000Y2222500D01*
X4000500D01*
X3683000Y1905000D01*
G01X4497100Y762000D02*
X4538000D01*
G01X4497100Y655100D02*
Y762000D01*
G01X4417100Y635000D02*
Y762000D01*
G01X5016500Y1524000D02*
Y825500D01*
X4991100Y800100D01*
X4787900D01*
X4762500Y825500D01*
Y852100D01*
X4707800Y906800D01*
X4641800D01*
G01X4889500Y952400D02*
X4790500D01*
X4756100Y986800D01*
X4641800D01*
G01X4889500Y952400D02*
X4889400Y952500D01*
X5308600D01*
X5334000Y927100D01*
Y762000D01*
G01X4417100Y1611600D02*
Y1725900D01*
X4432300Y1741100D01*
Y1982400D01*
X4445000Y1995100D01*
Y2349500D01*
G01X4191000D02*
X4381500Y2159000D01*
Y1770400D01*
X4337000Y1725900D01*
Y1611600D01*
G01X4635500Y2159000D02*
Y1521400D01*
X4641800Y1515100D01*
Y1466800D01*
G01X4699000Y2349500D02*
X4497100Y2147600D01*
Y1611600D01*
G01X4953000Y2349500D02*
Y2222500D01*
X4856200Y2125700D01*
Y1874800D01*
X5016500Y1714500D01*
G01X4699000Y2349500D02*
Y2902900D01*
X4680900Y2921000D01*
X4457700D01*
X4445000Y2933700D01*
Y3175000D01*
X4508500Y3238500D01*
Y3492500D01*
G01X4699000Y2286000D02*
Y2349500D01*
G01X4572000Y2667000D02*
X4470400D01*
X4445000Y2641600D01*
Y2349500D01*
G01X4191000Y3302000D02*
X5308600D01*
X5334000Y3276600D01*
Y3048000D01*
G01X4953000Y2349500D02*
Y2782600D01*
X4804500Y2931100D01*
X4777600D01*
X4709100Y2999600D01*
Y3026500D01*
X4687600Y3048000D01*
X4572000D01*
G01X4826000D02*
Y3352800D01*
X4838700Y3365500D01*
X5397500D01*
X5524500Y3492500D01*
G01X8763000Y1270000D02*
Y1079500D01*
X8382000Y698500D01*
X5715100D01*
X5651500Y762100D01*
Y825500D01*
X5537200Y939800D01*
Y1412400D01*
X5425600Y1524000D01*
X5334000D01*
G01X6477000Y571500D02*
X5524500D01*
X5334000Y762000D01*
G01X5969000Y889000D02*
X5651600Y1206400D01*
Y1459800D01*
X5651500Y1459900D01*
Y1905000D01*
X5688300Y1941800D01*
X6078200D01*
G01X5969000Y889000D02*
Y1036300D01*
X5377100Y1628200D01*
X5356800D01*
X5207000Y1778000D01*
G01X5016500Y1524000D02*
X5334000D01*
G01X5029200Y2146300D02*
X5129500Y2246600D01*
X6223000D01*
G01X5080000Y3048000D02*
Y2819400D01*
X5105400Y2794000D01*
X5461000D01*
X5588000Y2667000D01*
G01X6078200Y1781800D02*
X6185100D01*
G01X5971300D02*
X6078200D01*
G01Y1621800D02*
X6185100D01*
G01X5971300D02*
X6078200D01*
G01X6383000Y1397000D02*
X6463000D01*
G01X6078200Y1701800D02*
X5791200D01*
X5778500Y1714500D01*
G01Y1841500D02*
X5943600D01*
X5963900Y1861800D01*
X6078200D01*
G01X6153700Y1329700D02*
Y1472400D01*
G01X6078200Y2101800D02*
X6141700D01*
G01X6096000Y3429000D02*
Y3048000D01*
G01X6350000D02*
Y2667000D01*
G01X7239000Y1270000D02*
Y787400D01*
X7213600Y762000D01*
X6591200D01*
X6543000Y810200D01*
Y1397000D01*
G01X6731000Y1016000D02*
Y1206500D01*
X6719500Y1218000D01*
Y1226400D01*
X6652700Y1293200D01*
Y1295100D01*
X6642100Y1305700D01*
Y1311900D01*
X6623000Y1331000D01*
Y1397000D01*
G01X6477000Y571500D02*
X8699500D01*
X8763000Y635000D01*
G01X6927800Y1861800D02*
X6497300D01*
X6463000Y1827500D01*
Y1397000D01*
G01X6703100D02*
Y1331000D01*
X6722100Y1312000D01*
Y1305700D01*
X6757800Y1270000D01*
X6764100D01*
X6856500Y1177600D01*
X6892600D01*
X7112000Y1397000D01*
X7317800D01*
X7343200Y1371600D01*
Y1229300D01*
X7429500Y1143000D01*
X8128000D01*
X8255000Y1270000D01*
G01X6985000Y1397000D02*
X6783100D01*
G01X8191500Y1968500D02*
X7429600D01*
X7302500Y1841400D01*
Y1587500D01*
X7112000Y1397000D01*
X6985000D01*
G01X6463000Y2413000D02*
X6730300D01*
X6750700Y2392600D01*
X6807700D01*
X6828100Y2413000D01*
X7620000D01*
X7747000Y2540000D01*
G01X7112000Y3429000D02*
X7239000Y3302000D01*
Y2642800D01*
X7136200Y2540000D01*
X6810300D01*
X6800100Y2529800D01*
X6728500D01*
X6703100Y2504400D01*
Y2246600D01*
G01X6858000Y2667000D02*
X6648400D01*
X6623000Y2641600D01*
Y2536900D01*
X6611600Y2525500D01*
Y2363400D01*
X6623000Y2352000D01*
Y2246600D01*
G01X6463000D02*
Y2413000D01*
G01X6540500Y2244100D02*
X6543000Y2246600D01*
G01X6858000Y2794000D02*
X6553200D01*
X6540500Y2781300D01*
Y2357100D01*
X6543000Y2354600D01*
Y2246600D01*
G01X7747000Y3556000D02*
X6883400D01*
X6858000Y3530600D01*
Y3048000D01*
G01Y2794000D02*
X6921500Y2730500D01*
X7282200D01*
X7322900Y2771200D01*
X7409100D01*
X7449800Y2730500D01*
X7825800D01*
X7851200Y2705100D01*
Y2565400D01*
X7876600Y2540000D01*
X8128000D01*
G01X6604000Y3048000D02*
Y2943800D01*
X6690300Y2857500D01*
X6824400D01*
X6829500Y2862600D01*
X6886500D01*
X6891600Y2857500D01*
X7607300D01*
X7620000Y2870200D01*
Y3352800D01*
X7632700Y3365500D01*
X7937500D01*
X8128000Y3556000D01*
G01X6858000Y2667000D02*
X7366000D01*
G01X7747000Y3556000D02*
X7851200Y3660200D01*
X8171100D01*
X8211800Y3619500D01*
X10579100D01*
X10604500Y3594100D01*
Y2525300D01*
X10674100Y2455700D01*
Y1354300D01*
X10668000Y1348200D01*
Y1016000D01*
X10414000Y762000D01*
G01X8255000Y1270000D02*
Y1447800D01*
X8229600Y1473200D01*
X8226500D01*
X8186400Y1513300D01*
Y1570300D01*
X8226500Y1610400D01*
X8229600D01*
X8255000Y1635800D01*
Y1884700D01*
X8295700Y1925400D01*
Y2011600D01*
X8255000Y2052300D01*
Y2159000D01*
X8953500Y2857500D01*
X9461500D01*
G01X9207500Y1968500D02*
X9271000Y1905000D01*
X10171000D01*
G01X9789400Y1778000D02*
X9804400Y1793000D01*
G01X9779000Y1778000D02*
X9789400D01*
G01X9855000Y1793000D02*
X9804400D01*
G01X9891000D02*
X9855000D01*
G01X9891000D02*
X9909000Y1775000D01*
X10171000D01*
G01X10477500Y2857500D02*
Y2525300D01*
X10407900Y2455700D01*
Y2374300D01*
X10477500Y2304700D01*
Y1852700D01*
X10464800Y1840000D01*
X10171000D01*
G01X10282400Y1970000D02*
X10171000D01*
G01X10304100Y1991700D02*
X10282400Y1970000D01*
G01X10477500Y3429000D02*
X10312400D01*
X10287000Y3403600D01*
Y2472800D01*
X10304100Y2455700D01*
Y1991700D01*
G54D14*
X4017000Y762000D03*
X4097000D03*
Y1611600D03*
X4017000D03*
X3937000D03*
X4177000Y762000D03*
X4257000D03*
X4337000D03*
X4417100D03*
X4497100D03*
Y1611600D03*
X4417100D03*
X4337000D03*
X4177000D03*
X6303000Y1397000D03*
X6383000D03*
Y2246600D03*
X6303000D03*
X6223000D03*
X6463000Y1397000D03*
X6543000D03*
X6623000D03*
X6703100D03*
X6783100D03*
Y2246600D03*
X6703100D03*
X6623000D03*
X6463000D03*
G54D24*
G01X635000Y1058900D02*
Y1143000D01*
G01Y1058900D02*
Y1143000D01*
G01X5207000Y1778000D02*
Y1206500D01*
X5461000Y952500D01*
Y571500D01*
X5270500Y381000D01*
X2921000D01*
X2667000Y635000D01*
X698500D01*
X508000Y825500D01*
Y1231900D01*
X546100Y1270000D01*
X1549400D01*
X1587500Y1231900D01*
Y927100D01*
X1549400Y889000D01*
X1397000D01*
G01X550900Y1143000D02*
X635000D01*
G01D02*
Y1227100D01*
G01Y1143000D02*
X719100D01*
G01X635000D02*
X1397000D01*
G01Y1058900D02*
Y1143000D01*
G01Y1058900D02*
Y1143000D01*
G01X2188200Y1016000D02*
X2159000D01*
Y948000D01*
X2116500Y905500D01*
X2048500D01*
X1905000Y762000D01*
X1143000D01*
Y1143000D01*
G01X1397000D02*
X1481100D01*
G01X1397000D02*
Y1227100D01*
G01Y1143000D02*
X1481100D01*
G01X1143000D02*
X1397000D01*
G01X1778000Y3302000D02*
Y1270000D01*
X2032000Y1016000D01*
G01X1524000Y3302000D02*
X1778000D01*
G01X2201900Y1016000D02*
X2286000D01*
G01Y931900D02*
Y1016000D01*
G01D02*
X2794000D01*
G01X2286000D02*
X2370100D01*
G01X2201900D02*
X2286000D01*
G01Y931900D02*
Y1016000D01*
G01X2476500Y1143000D02*
X2159000D01*
X2032000Y1016000D01*
G01X2286000Y1651000D02*
Y1016000D01*
G01Y1651000D02*
X2370100D01*
G01X2201900D02*
X2286000D01*
G01D02*
Y1735100D01*
G01Y1651000D02*
X2370100D01*
G01X2201900D02*
X2286000D01*
G01D02*
Y1735100D01*
G01Y1566900D02*
Y1651000D01*
G01X4191000Y1968500D02*
X4127600D01*
X3683100Y1524000D01*
X2501900D01*
X2476500Y1498600D01*
Y1143000D01*
G01X3365500Y558800D02*
Y825500D01*
X3048000Y1143000D01*
X2476500D01*
G01X2794000Y762000D02*
X2878100D01*
G01X2709900D02*
X2794000D01*
G01Y677900D02*
Y762000D01*
G01Y1016000D02*
Y762000D01*
G01X4445000Y508000D02*
X3416300D01*
X3365500Y558800D01*
G01X2794000Y762000D02*
X2878100D01*
G01X2709900D02*
X2794000D01*
G01D02*
Y846100D01*
G01Y677900D02*
Y762000D01*
G01X8572500Y1333500D02*
Y1052100D01*
X8472900Y952500D01*
X7175000D01*
X7132100Y909600D01*
X7086100D01*
X7053700Y942000D01*
Y1010800D01*
X6916400Y1148100D01*
X6702500D01*
X6692300Y1137900D01*
X6450900D01*
X6444500Y1131500D01*
X6382500D01*
X6376100Y1137900D01*
X5974100D01*
X5524500Y1587500D01*
Y1714500D01*
X5392400Y1846600D01*
X5244400D01*
X5238000Y1853000D01*
X5176000D01*
X5164500Y1841500D01*
X4127500D01*
G01X4121100Y1339900D02*
X4508500Y952500D01*
G01X4097000Y1339900D02*
X4121100D01*
G01X4097000Y1611600D02*
Y1339900D01*
G01X4127500Y1841500D02*
X4097000Y1811000D01*
Y1745000D01*
G01Y1611600D02*
Y1745000D01*
G01X3937000Y2349500D02*
X4033800D01*
G01X3840200D02*
X3937000D01*
G01D02*
Y2446300D01*
G01Y2252700D02*
Y2349500D01*
G01D02*
X4033800D01*
G01X3840200D02*
X3937000D01*
G01D02*
Y2446300D01*
G01Y2252700D02*
Y2349500D01*
G01X4445000Y508000D02*
Y570300D01*
X4417100Y598200D01*
Y635000D01*
G01X4497100Y939800D02*
Y762000D01*
G01X4191000Y1968500D02*
X4257000Y1902500D01*
Y1611600D01*
G01X7366000Y1079500D02*
X7112000D01*
X6979900Y1211600D01*
X6676100D01*
X6671000Y1206500D01*
X5995400D01*
X5588000Y1613900D01*
Y1740900D01*
X5418800Y1910100D01*
X5400800D01*
X5342400Y1968500D01*
X4191000D01*
G01X6078200Y2021800D02*
X5613400D01*
X5588000Y1996400D01*
Y1442500D01*
X5594400Y1436100D01*
Y1073100D01*
X5905500Y762000D01*
X6375400D01*
X6463000Y849600D01*
Y1397000D01*
G01X5588000Y3048000D02*
X5684800D01*
G01X5491200D02*
X5588000D01*
G01Y2951200D02*
Y3048000D01*
G01D02*
X5684800D01*
G01X5491200D02*
X5588000D01*
G01D02*
Y3144800D01*
G01Y2951200D02*
Y3048000D01*
G01D02*
Y3152200D01*
G01X6731000Y1549400D02*
X6756400Y1524000D01*
X6795700D01*
X6813500Y1541800D01*
G01X8382000Y1739900D02*
X8343900Y1778000D01*
X7132300D01*
X7048500Y1861800D01*
X6927800D01*
G01X6813500Y1941800D02*
X6794500Y1922800D01*
Y1560800D01*
X6813500Y1541800D01*
G01X8255000D02*
X6927800D01*
G01D02*
X6813500D01*
G01X6477000Y3129400D02*
Y2636500D01*
X6515100Y2598400D01*
X6771600D01*
G01X6783100Y2246600D02*
Y2457300D01*
G01D02*
X6779200Y2461200D01*
G01D02*
Y2523500D01*
X6771600Y2531100D01*
Y2598400D01*
G01X6783100Y1967200D02*
X6808500Y1941800D01*
X6813500D01*
G01X6927800D02*
X6813500D01*
G01X6783100Y1967200D02*
Y2246600D01*
G01X7112000Y3048000D02*
X7208800D01*
G01X7015200D02*
X7112000D01*
G01D02*
Y3144800D01*
G01Y2951200D02*
Y3048000D01*
G01X7015200D02*
X7112000D01*
G01D02*
Y3144800D01*
G01Y2951200D02*
Y3048000D01*
G01X7366000Y1079500D02*
X8343900D01*
X8382000Y1117600D01*
Y1739900D01*
G01X8678900Y889000D02*
X8763000D01*
G01X8678900D02*
X8763000D01*
G01Y1524000D02*
X8572500Y1333500D01*
G01X8763000Y1524000D02*
X8671500D01*
G01D02*
X8653700Y1541800D01*
X8255000D01*
G01X8382000Y1739900D02*
X9055100D01*
X9398000Y1397000D01*
G01X8678900Y1524000D02*
X8763000D01*
G01Y889000D02*
Y973100D01*
G01Y804900D02*
Y889000D01*
G01D02*
X8847100D01*
G01X8763000D02*
Y973100D01*
G01Y804900D02*
Y889000D01*
G01X8890000D02*
X8953500D01*
Y571500D01*
X9652000D01*
G01X8890000Y889000D02*
X8763000D01*
G01X9398000Y1397000D02*
Y762000D01*
G01X8890000Y889000D02*
Y1524000D01*
G01X8763000D02*
Y1608100D01*
G01Y1439900D02*
Y1524000D01*
G01D02*
X8847100D01*
G01X8763000D02*
Y1608100D01*
G01Y1439900D02*
Y1524000D01*
G01D02*
X8890000D01*
G01X9461500Y3111500D02*
X9626600D01*
X9715500Y3022600D01*
Y1676400D01*
X9690100Y1651000D01*
X9423400D01*
X9398000Y1625600D01*
Y1397000D01*
G01X9461500Y3429000D02*
Y3111500D01*
G01X10160000Y762000D02*
X10244100D01*
G01X10160000D02*
Y846100D01*
G01Y677900D02*
Y762000D01*
G01X9567900D02*
X9652000D01*
G01X10160000D02*
X10244100D01*
G01X10075900D02*
X10160000D01*
G01D02*
Y846100D01*
G01Y677900D02*
Y762000D01*
G01X9652000D02*
X9736100D01*
G01X9567900D02*
X9652000D01*
G01D02*
Y846100D01*
G01Y677900D02*
Y762000D01*
G01Y571500D02*
Y762000D01*
G01D02*
Y1397000D01*
G01X10160000Y762000D02*
X9652000D01*
G01Y1397000D02*
X9736100D01*
G01X9567900D02*
X9652000D01*
G01D02*
Y1481100D01*
G01X9588500Y1778000D02*
X9779000D01*
G01X9573500Y1763000D02*
X9588500Y1778000D01*
G01X9573500Y1678900D02*
Y1763000D01*
G01Y1678900D02*
Y1511500D01*
G01Y1475500D02*
X9652000Y1397000D01*
G01X9573500Y1511500D02*
Y1475500D01*
G01X9652000Y1397000D02*
X9736100D01*
G01X9567900D02*
X9652000D01*
G01D02*
Y1481100D01*
G01Y1312900D02*
Y1397000D01*
G54D15*
X3792200Y1066800D03*
X4641800Y986800D03*
X6078200Y1701800D03*
X6927800Y1621800D03*
G54D16*
X3792200Y986800D03*
Y906800D03*
Y1466800D03*
Y1386800D03*
Y1306800D03*
Y1226800D03*
Y1146800D03*
X4641800Y906800D03*
Y1066800D03*
Y1146800D03*
Y1226800D03*
Y1306800D03*
Y1386800D03*
Y1466800D03*
X6078200Y1861800D03*
Y1781800D03*
Y1621800D03*
Y1541800D03*
Y2101800D03*
Y2021800D03*
Y1941800D03*
X6927800Y1541800D03*
Y1701800D03*
Y1781800D03*
Y1861800D03*
Y1941800D03*
Y2021800D03*
Y2101800D03*
G54D17*
X3937000Y2349500D03*
D03*
X4191000D03*
D03*
X4445000D03*
D03*
X4699000D03*
D03*
X4826000Y3048000D03*
D03*
X5588000D03*
D03*
X5334000D03*
D03*
X5080000D03*
D03*
X6350000D03*
D03*
X7112000D03*
D03*
X6858000D03*
D03*
X6604000D03*
D03*
G54D18*
X4953000Y2349500D03*
D03*
X4572000Y3048000D03*
D03*
X6096000D03*
D03*
G54D19*
X10171000Y1395000D03*
D03*
Y2415000D03*
D03*
X10541000Y1395000D03*
D03*
Y2415000D03*
D03*
M02*
