G04 ================== begin FILE IDENTIFICATION RECORD ==================*
G04 Layout Name:  c:/Users/user/Desktop/work/avrusb500/micro_usb.brd*
G04 Film Name:    SilkT*
G04 File Format:  Gerber RS274X*
G04 File Origin:  Cadence Allegro 16.6-S034*
G04 Origin Date:  Fri Jul 19 12:48:57 2019*
G04 *
G04 Layer:  REF DES/SILKSCREEN_TOP*
G04 Layer:  PACKAGE GEOMETRY/SILKSCREEN_TOP*
G04 Layer:  BOARD GEOMETRY/SILKSCREEN_TOP*
G04 *
G04 Offset:    (0.000 0.000)*
G04 Mirror:    No*
G04 Mode:      Positive*
G04 Rotation:  0*
G04 FullContactRelief:  No*
G04 UndefLineWidth:     0.200*
G04 ================== end FILE IDENTIFICATION RECORD ====================*
%FSLAX55Y55*MOMM*%
%IR0*IPPOS*OFA0.00000B0.00000*MIA0B0*SFA1.00000B1.00000*%
%ADD10C,.2*%
%ADD11C,.203*%
%ADD12C,.254*%
G75*
%LPD*%
G75*
G54D10*
G01X591600Y1767400D02*
X582000Y1773800D01*
X570700Y1778000D01*
X557900D01*
X543400Y1771600D01*
X532100Y1761100D01*
X524100Y1748400D01*
X517600Y1727200D01*
X516000Y1708100D01*
X519300Y1689100D01*
X524100Y1676400D01*
X533700Y1663700D01*
X545000Y1655200D01*
X556200Y1651000D01*
X567500D01*
X578800Y1655200D01*
X588400Y1661600D01*
X596500Y1670000D01*
G01X685700Y1651000D02*
Y1778000D01*
X666400Y1752600D01*
G01Y1651000D02*
X705000D01*
G01X804600Y3440100D02*
Y3567100D01*
X844800D01*
X857700Y3560700D01*
X865700Y3552300D01*
X868900Y3535300D01*
X865700Y3518400D01*
X856100Y3507800D01*
X844800Y3501500D01*
X804600D01*
G01X844800D02*
X868900Y3440100D01*
G01X966200D02*
Y3567100D01*
X946900Y3541700D01*
G01Y3440100D02*
X985500D01*
G01X1353600Y1513400D02*
X1344000Y1519800D01*
X1332700Y1524000D01*
X1319900D01*
X1305400Y1517600D01*
X1294100Y1507100D01*
X1286100Y1494400D01*
X1279600Y1473200D01*
X1278000Y1454100D01*
X1281300Y1435100D01*
X1286100Y1422400D01*
X1295700Y1409700D01*
X1307000Y1401200D01*
X1318200Y1397000D01*
X1329500D01*
X1340800Y1401200D01*
X1350400Y1407600D01*
X1358500Y1416000D01*
G01X1412400Y1422400D02*
X1422000Y1407600D01*
X1434900Y1399100D01*
X1449400Y1397000D01*
X1462200Y1399100D01*
X1475100Y1409700D01*
X1483100Y1422400D01*
X1484700Y1435100D01*
X1481500Y1449900D01*
X1470300Y1460500D01*
X1459000Y1464700D01*
X1444500D01*
G01X1459000D02*
X1468700Y1471100D01*
X1476700Y1481700D01*
X1479900Y1494400D01*
X1476700Y1507100D01*
X1468700Y1517600D01*
X1454200Y1524000D01*
X1439700Y1521900D01*
X1425200Y1513400D01*
G01X1983400Y1429300D02*
X1973800Y1435700D01*
X1962500Y1439900D01*
X1949700D01*
X1935200Y1433500D01*
X1923900Y1423000D01*
X1915900Y1410300D01*
X1909400Y1389100D01*
X1907800Y1370000D01*
X1911100Y1351000D01*
X1915900Y1338300D01*
X1925500Y1325600D01*
X1936800Y1317100D01*
X1948000Y1312900D01*
X1959300D01*
X1970600Y1317100D01*
X1980200Y1323500D01*
X1988300Y1331900D01*
G01X2042200D02*
X2051800Y1321400D01*
X2063100Y1315000D01*
X2077500Y1312900D01*
X2092000Y1317100D01*
X2103300Y1325600D01*
X2111300Y1340400D01*
X2112900Y1357300D01*
X2109700Y1374300D01*
X2101700Y1384900D01*
X2090400Y1393300D01*
X2079200Y1395400D01*
X2067900Y1393300D01*
X2053400Y1384900D01*
X2058200Y1439900D01*
X2101700D01*
G01X2369600Y2021400D02*
X2360000Y2027800D01*
X2348700Y2032000D01*
X2335900D01*
X2321400Y2025600D01*
X2310100Y2015100D01*
X2302100Y2002400D01*
X2295600Y1981200D01*
X2294000Y1962100D01*
X2297300Y1943100D01*
X2302100Y1930400D01*
X2311700Y1917700D01*
X2323000Y1909200D01*
X2334200Y1905000D01*
X2345500D01*
X2356800Y1909200D01*
X2366400Y1915600D01*
X2374500Y1924000D01*
G01X2433200Y2010800D02*
X2442800Y2023500D01*
X2454100Y2029900D01*
X2467000Y2032000D01*
X2483100Y2027800D01*
X2494300Y2017200D01*
X2497500Y2004500D01*
X2495900Y1991800D01*
X2489500Y1981200D01*
X2457300Y1960000D01*
X2442800Y1945200D01*
X2433200Y1924000D01*
X2430000Y1905000D01*
X2497500D01*
G01X2655900Y2201600D02*
X2528900D01*
Y2241800D01*
X2535300Y2254700D01*
X2543700Y2262700D01*
X2560700Y2265900D01*
X2577600Y2262700D01*
X2588200Y2253100D01*
X2594500Y2241800D01*
Y2201600D01*
G01Y2241800D02*
X2655900Y2265900D01*
G01Y2363200D02*
X2528900D01*
X2554300Y2343900D01*
G01X2655900D02*
Y2382500D01*
G01X2636900Y2457400D02*
X2647400Y2467000D01*
X2653800Y2478300D01*
X2655900Y2492700D01*
X2651700Y2507200D01*
X2643200Y2518500D01*
X2628400Y2526500D01*
X2611500Y2528100D01*
X2594500Y2524900D01*
X2583900Y2516900D01*
X2575500Y2505600D01*
X2573400Y2494400D01*
X2575500Y2483100D01*
X2583900Y2468600D01*
X2528900Y2473400D01*
Y2516900D01*
G01X2074600Y3440100D02*
Y3567100D01*
X2114800D01*
X2127700Y3560700D01*
X2135700Y3552300D01*
X2138900Y3535300D01*
X2135700Y3518400D01*
X2126100Y3507800D01*
X2114800Y3501500D01*
X2074600D01*
G01X2114800D02*
X2138900Y3440100D01*
G01X2208900Y3454900D02*
X2220200Y3444300D01*
X2233000Y3440100D01*
X2245900Y3444300D01*
X2257200Y3457000D01*
X2265200Y3476100D01*
X2268400Y3495100D01*
Y3518400D01*
X2265200Y3537500D01*
X2257200Y3554400D01*
X2247500Y3562900D01*
X2236200Y3567100D01*
X2223400Y3562900D01*
X2213700Y3554400D01*
X2207300Y3541700D01*
X2204100Y3524800D01*
X2207300Y3510000D01*
X2215300Y3495100D01*
X2225000Y3486700D01*
X2236200Y3484500D01*
X2249100Y3488800D01*
X2258800Y3499400D01*
X2268400Y3518400D01*
G01X2877600Y1132400D02*
X2868000Y1138800D01*
X2856700Y1143000D01*
X2843900D01*
X2829400Y1136600D01*
X2818100Y1126100D01*
X2810100Y1113400D01*
X2803600Y1092200D01*
X2802000Y1073100D01*
X2805300Y1054100D01*
X2810100Y1041400D01*
X2819700Y1028700D01*
X2831000Y1020200D01*
X2842200Y1016000D01*
X2853500D01*
X2864800Y1020200D01*
X2874400Y1026600D01*
X2882500Y1035000D01*
G01X2991100Y1016000D02*
Y1143000D01*
X2931500Y1052000D01*
X3012000D01*
G01X3060900Y2540000D02*
Y2667000D01*
X3093000D01*
X3105900Y2660600D01*
X3115600Y2652200D01*
X3123600Y2639500D01*
X3130000Y2624700D01*
X3131600Y2603500D01*
X3130000Y2582300D01*
X3123600Y2567500D01*
X3115600Y2554800D01*
X3105900Y2546300D01*
X3093000Y2540000D01*
X3060900D01*
G01X3225700D02*
Y2667000D01*
X3206400Y2641600D01*
G01Y2540000D02*
X3245000D01*
G01X3457900Y762000D02*
X3496500D01*
G01X3477200D02*
Y635000D01*
G01X3457900D02*
X3496500D01*
G01X3642100Y751400D02*
X3632500Y757800D01*
X3621200Y762000D01*
X3608400D01*
X3593900Y755600D01*
X3582600Y745100D01*
X3574600Y732400D01*
X3568100Y711200D01*
X3566500Y692100D01*
X3569800Y673100D01*
X3574600Y660400D01*
X3584200Y647700D01*
X3595500Y639200D01*
X3606700Y635000D01*
X3618000D01*
X3629300Y639200D01*
X3638900Y645600D01*
X3647000Y654000D01*
G01X3736200Y635000D02*
Y762000D01*
X3716900Y736600D01*
G01Y635000D02*
X3755500D01*
G01X3826100Y2565400D02*
X3834100Y2552700D01*
X3843800Y2544200D01*
X3855000Y2540000D01*
X3867900Y2544200D01*
X3877600Y2552700D01*
X3887200Y2565400D01*
X3890400Y2582300D01*
Y2667000D01*
G01X4007100Y2540000D02*
Y2667000D01*
X3947500Y2576000D01*
X4028000D01*
G01X3471600Y3440100D02*
Y3567100D01*
X3511800D01*
X3524700Y3560700D01*
X3532700Y3552300D01*
X3535900Y3535300D01*
X3532700Y3518400D01*
X3523100Y3507800D01*
X3511800Y3501500D01*
X3471600D01*
G01X3511800D02*
X3535900Y3440100D01*
G01X3633200D02*
Y3567100D01*
X3613900Y3541700D01*
G01Y3440100D02*
X3652500D01*
G01X3762700D02*
Y3567100D01*
X3743400Y3541700D01*
G01Y3440100D02*
X3782000D01*
G01X4842100Y3175000D02*
Y3302000D01*
X4882300D01*
X4895200Y3295600D01*
X4903200Y3287200D01*
X4906400Y3270200D01*
X4903200Y3253300D01*
X4893600Y3242700D01*
X4882300Y3236400D01*
X4842100D01*
G01X4882300D02*
X4906400Y3175000D01*
G01X5003700D02*
Y3302000D01*
X4984400Y3276600D01*
G01Y3175000D02*
X5023000D01*
G01X5097900Y3200400D02*
X5107500Y3185600D01*
X5120400Y3177100D01*
X5134900Y3175000D01*
X5147700Y3177100D01*
X5160600Y3187700D01*
X5168600Y3200400D01*
X5170200Y3213100D01*
X5167000Y3227900D01*
X5155800Y3238500D01*
X5144500Y3242700D01*
X5130000D01*
G01X5144500D02*
X5154200Y3249100D01*
X5162200Y3259700D01*
X5165400Y3272400D01*
X5162200Y3285100D01*
X5154200Y3295600D01*
X5139700Y3302000D01*
X5125200Y3299900D01*
X5110700Y3291400D01*
G01X4382900Y2960900D02*
X4395600Y2968900D01*
X4404100Y2978600D01*
X4408300Y2989800D01*
X4404100Y3002700D01*
X4395600Y3012400D01*
X4382900Y3022000D01*
X4366000Y3025200D01*
X4281300D01*
G01X4382900Y3087200D02*
X4397700Y3096800D01*
X4406200Y3109700D01*
X4408300Y3124200D01*
X4406200Y3137000D01*
X4395600Y3149900D01*
X4382900Y3157900D01*
X4370200Y3159500D01*
X4355400Y3156300D01*
X4344800Y3145100D01*
X4340600Y3133800D01*
Y3119300D01*
G01Y3133800D02*
X4334200Y3143500D01*
X4323600Y3151500D01*
X4310900Y3154700D01*
X4298200Y3151500D01*
X4287700Y3143500D01*
X4281300Y3129000D01*
X4283400Y3114500D01*
X4291900Y3100000D01*
G01X5001200Y635000D02*
Y692100D01*
X4969100Y762000D01*
G01X5033400D02*
X5001200Y692100D01*
G01X5130700Y635000D02*
Y762000D01*
X5111400Y736600D01*
G01Y635000D02*
X5150000D01*
G01X5589900Y1483600D02*
Y1392600D01*
X5596300Y1373500D01*
X5609200Y1360800D01*
X5625200Y1356600D01*
X5641300Y1360800D01*
X5654200Y1373500D01*
X5660600Y1392600D01*
Y1483600D01*
G01X5754700Y1356600D02*
Y1483600D01*
X5735400Y1458200D01*
G01Y1356600D02*
X5774000D01*
G01X5223100Y2413000D02*
Y2540000D01*
X5263300D01*
X5276200Y2533600D01*
X5284200Y2525200D01*
X5287400Y2508200D01*
X5284200Y2491300D01*
X5274600Y2480700D01*
X5263300Y2474400D01*
X5223100D01*
G01X5263300D02*
X5287400Y2413000D01*
G01X5384700D02*
Y2540000D01*
X5365400Y2514600D01*
G01Y2413000D02*
X5404000D01*
G01X5483700Y2518800D02*
X5493300Y2531500D01*
X5504600Y2537900D01*
X5517500Y2540000D01*
X5533600Y2535800D01*
X5544800Y2525200D01*
X5548000Y2512500D01*
X5546400Y2499800D01*
X5540000Y2489200D01*
X5507800Y2468000D01*
X5493300Y2453200D01*
X5483700Y2432000D01*
X5480500Y2413000D01*
X5548000D01*
G01X5906900Y2960900D02*
X5919600Y2968900D01*
X5928100Y2978600D01*
X5932300Y2989800D01*
X5928100Y3002700D01*
X5919600Y3012400D01*
X5906900Y3022000D01*
X5890000Y3025200D01*
X5805300D01*
G01X5932300Y3122500D02*
X5805300D01*
X5830700Y3103200D01*
G01X5932300D02*
Y3141800D01*
G01X7033200Y635000D02*
Y692100D01*
X7001100Y762000D01*
G01X7065400D02*
X7033200Y692100D01*
G01X7132200Y740800D02*
X7141800Y753500D01*
X7153100Y759900D01*
X7166000Y762000D01*
X7182100Y757800D01*
X7193300Y747200D01*
X7196500Y734500D01*
X7194900Y721800D01*
X7188500Y711200D01*
X7156300Y690000D01*
X7141800Y675200D01*
X7132200Y654000D01*
X7129000Y635000D01*
X7196500D01*
G01X7069400Y2528900D02*
Y2401900D01*
X7029200D01*
X7016300Y2408300D01*
X7008300Y2416700D01*
X7005100Y2433700D01*
X7008300Y2450600D01*
X7017900Y2461200D01*
X7029200Y2467500D01*
X7069400D01*
G01X7029200D02*
X7005100Y2528900D01*
G01X6888400D02*
Y2401900D01*
X6948000Y2492900D01*
X6867500D01*
G01X6620100Y3175000D02*
Y3302000D01*
X6660300D01*
X6673200Y3295600D01*
X6681200Y3287200D01*
X6684400Y3270200D01*
X6681200Y3253300D01*
X6671600Y3242700D01*
X6660300Y3236400D01*
X6620100D01*
G01X6660300D02*
X6684400Y3175000D01*
G01X6781700D02*
Y3302000D01*
X6762400Y3276600D01*
G01Y3175000D02*
X6801000D01*
G01X6930600D02*
Y3302000D01*
X6871000Y3211000D01*
X6951500D01*
G01X7890100Y1016000D02*
Y1143000D01*
X7930300D01*
X7943200Y1136600D01*
X7951200Y1128200D01*
X7954400Y1111200D01*
X7951200Y1094300D01*
X7941600Y1083700D01*
X7930300Y1077400D01*
X7890100D01*
G01X7930300D02*
X7954400Y1016000D01*
G01X8048500D02*
X8051700Y1043500D01*
X8056600Y1066800D01*
X8063000Y1088000D01*
X8071100Y1111200D01*
X8083900Y1143000D01*
X8019600D01*
G01X7989900Y2836600D02*
X7862900D01*
Y2876800D01*
X7869300Y2889700D01*
X7877700Y2897700D01*
X7894700Y2900900D01*
X7911600Y2897700D01*
X7922200Y2888100D01*
X7928500Y2876800D01*
Y2836600D01*
G01Y2876800D02*
X7989900Y2900900D01*
G01X7964500Y2962900D02*
X7979300Y2972500D01*
X7987800Y2985400D01*
X7989900Y2999900D01*
X7987800Y3012700D01*
X7977200Y3025600D01*
X7964500Y3033600D01*
X7951800Y3035200D01*
X7937000Y3032000D01*
X7926400Y3020800D01*
X7922200Y3009500D01*
Y2995000D01*
G01Y3009500D02*
X7915800Y3019200D01*
X7905200Y3027200D01*
X7892500Y3030400D01*
X7879800Y3027200D01*
X7869300Y3019200D01*
X7862900Y3004700D01*
X7865000Y2990200D01*
X7873500Y2975700D01*
G01X7608900Y2836600D02*
X7481900D01*
Y2876800D01*
X7488300Y2889700D01*
X7496700Y2897700D01*
X7513700Y2900900D01*
X7530600Y2897700D01*
X7541200Y2888100D01*
X7547500Y2876800D01*
Y2836600D01*
G01Y2876800D02*
X7608900Y2900900D01*
G01X7503100Y2967700D02*
X7490400Y2977300D01*
X7484000Y2988600D01*
X7481900Y3001500D01*
X7486100Y3017600D01*
X7496700Y3028800D01*
X7509400Y3032000D01*
X7522100Y3030400D01*
X7532700Y3024000D01*
X7553900Y2991800D01*
X7568700Y2977300D01*
X7589900Y2967700D01*
X7608900Y2964500D01*
Y3032000D01*
G01X8465600Y1767400D02*
X8456000Y1773800D01*
X8444700Y1778000D01*
X8431900D01*
X8417400Y1771600D01*
X8406100Y1761100D01*
X8398100Y1748400D01*
X8391600Y1727200D01*
X8390000Y1708100D01*
X8393300Y1689100D01*
X8398100Y1676400D01*
X8407700Y1663700D01*
X8419000Y1655200D01*
X8430200Y1651000D01*
X8441500D01*
X8452800Y1655200D01*
X8462400Y1661600D01*
X8470500Y1670000D01*
G01X8556500Y1651000D02*
X8559700Y1678500D01*
X8564600Y1701800D01*
X8571000Y1723000D01*
X8579100Y1746200D01*
X8591900Y1778000D01*
X8527600D01*
G01X8846600Y497400D02*
X8837000Y503800D01*
X8825700Y508000D01*
X8812900D01*
X8798400Y501600D01*
X8787100Y491100D01*
X8779100Y478400D01*
X8772600Y457200D01*
X8771000Y438100D01*
X8774300Y419100D01*
X8779100Y406400D01*
X8788700Y393700D01*
X8800000Y385200D01*
X8811200Y381000D01*
X8822500D01*
X8833800Y385200D01*
X8843400Y391600D01*
X8851500Y400000D01*
G01X8940700Y381000D02*
X8952000Y383100D01*
X8964900Y389500D01*
X8972900Y400000D01*
X8976100Y414900D01*
X8972900Y429700D01*
X8963300Y442400D01*
X8948800Y448700D01*
X8932700D01*
X8923100Y453000D01*
X8915000Y463500D01*
X8911800Y478400D01*
X8916600Y493200D01*
X8927900Y503800D01*
X8940700Y508000D01*
X8953600Y503800D01*
X8964900Y493200D01*
X8969700Y478400D01*
X8966500Y463500D01*
X8958400Y453000D01*
X8948800Y448700D01*
X8932700D01*
X8918200Y442400D01*
X8908600Y429700D01*
X8905400Y414900D01*
X8908600Y400000D01*
X8916600Y389500D01*
X8929500Y383100D01*
X8940700Y381000D01*
G01X9349400Y1175300D02*
X9339800Y1181700D01*
X9328500Y1185900D01*
X9315700D01*
X9301200Y1179500D01*
X9289900Y1169000D01*
X9281900Y1156300D01*
X9275400Y1135100D01*
X9273800Y1116000D01*
X9277100Y1097000D01*
X9281900Y1084300D01*
X9291500Y1071600D01*
X9302800Y1063100D01*
X9314000Y1058900D01*
X9325300D01*
X9336600Y1063100D01*
X9346200Y1069500D01*
X9354300Y1077900D01*
G01X9416200Y1073700D02*
X9427500Y1063100D01*
X9440300Y1058900D01*
X9453200Y1063100D01*
X9464500Y1075800D01*
X9472500Y1094900D01*
X9475700Y1113900D01*
Y1137200D01*
X9472500Y1156300D01*
X9464500Y1173200D01*
X9454800Y1181700D01*
X9443500Y1185900D01*
X9430700Y1181700D01*
X9421000Y1173200D01*
X9414600Y1160500D01*
X9411400Y1143600D01*
X9414600Y1128800D01*
X9422600Y1113900D01*
X9432300Y1105500D01*
X9443500Y1103300D01*
X9456400Y1107600D01*
X9466100Y1118200D01*
X9475700Y1137200D01*
G01X9349400Y1810300D02*
X9339800Y1816700D01*
X9328500Y1820900D01*
X9315700D01*
X9301200Y1814500D01*
X9289900Y1804000D01*
X9281900Y1791300D01*
X9275400Y1770100D01*
X9273800Y1751000D01*
X9277100Y1732000D01*
X9281900Y1719300D01*
X9291500Y1706600D01*
X9302800Y1698100D01*
X9314000Y1693900D01*
X9325300D01*
X9336600Y1698100D01*
X9346200Y1704500D01*
X9354300Y1712900D01*
G01X9413000Y1746800D02*
X9424200Y1761600D01*
X9433900Y1770100D01*
X9446800Y1774300D01*
X9458000Y1770100D01*
X9466100Y1761600D01*
X9472500Y1748900D01*
X9474100Y1734100D01*
X9472500Y1721400D01*
X9466100Y1708700D01*
X9456400Y1698100D01*
X9445200Y1693900D01*
X9432300Y1698100D01*
X9421000Y1710800D01*
X9414600Y1729900D01*
X9413000Y1751000D01*
X9416200Y1778600D01*
X9421000Y1793400D01*
X9429100Y1808200D01*
X9440300Y1818800D01*
X9451600Y1820900D01*
X9462900Y1816700D01*
X9470900Y1806100D01*
G01X8779100Y2159000D02*
Y2286000D01*
X8819300D01*
X8832200Y2279600D01*
X8840200Y2271200D01*
X8843400Y2254200D01*
X8840200Y2237300D01*
X8830600Y2226700D01*
X8819300Y2220400D01*
X8779100D01*
G01X8819300D02*
X8843400Y2159000D01*
G01X8905400Y2178000D02*
X8915000Y2167500D01*
X8926300Y2161100D01*
X8940700Y2159000D01*
X8955200Y2163200D01*
X8966500Y2171700D01*
X8974500Y2186500D01*
X8976100Y2203400D01*
X8972900Y2220400D01*
X8964900Y2231000D01*
X8953600Y2239400D01*
X8942400Y2241500D01*
X8931100Y2239400D01*
X8916600Y2231000D01*
X8921400Y2286000D01*
X8964900D01*
G01X8742100Y3249600D02*
Y3376600D01*
X8782300D01*
X8795200Y3370200D01*
X8803200Y3361800D01*
X8806400Y3344800D01*
X8803200Y3327900D01*
X8793600Y3317300D01*
X8782300Y3311000D01*
X8742100D01*
G01X8782300D02*
X8806400Y3249600D01*
G01X8903700D02*
Y3376600D01*
X8884400Y3351200D01*
G01Y3249600D02*
X8923000D01*
G01X9033200Y3376600D02*
X9020400Y3372400D01*
X9010700Y3361800D01*
X9004300Y3349100D01*
X8999500Y3332100D01*
X8997900Y3313100D01*
X8999500Y3294000D01*
X9004300Y3277100D01*
X9010700Y3264400D01*
X9020400Y3253800D01*
X9033200Y3249600D01*
X9046100Y3253800D01*
X9055800Y3264400D01*
X9062200Y3277100D01*
X9067000Y3294000D01*
X9068600Y3313100D01*
X9067000Y3332100D01*
X9062200Y3349100D01*
X9055800Y3361800D01*
X9046100Y3372400D01*
X9033200Y3376600D01*
G01X10111400Y1175300D02*
X10101800Y1181700D01*
X10090500Y1185900D01*
X10077700D01*
X10063200Y1179500D01*
X10051900Y1169000D01*
X10043900Y1156300D01*
X10037400Y1135100D01*
X10035800Y1116000D01*
X10039100Y1097000D01*
X10043900Y1084300D01*
X10053500Y1071600D01*
X10064800Y1063100D01*
X10076000Y1058900D01*
X10087300D01*
X10098600Y1063100D01*
X10108200Y1069500D01*
X10116300Y1077900D01*
G01X10205500Y1058900D02*
Y1185900D01*
X10186200Y1160500D01*
G01Y1058900D02*
X10224800D01*
G01X10335000Y1185900D02*
X10322200Y1181700D01*
X10312500Y1171100D01*
X10306100Y1158400D01*
X10301300Y1141400D01*
X10299700Y1122400D01*
X10301300Y1103300D01*
X10306100Y1086400D01*
X10312500Y1073700D01*
X10322200Y1063100D01*
X10335000Y1058900D01*
X10347900Y1063100D01*
X10357600Y1073700D01*
X10364000Y1086400D01*
X10368800Y1103300D01*
X10370400Y1122400D01*
X10368800Y1141400D01*
X10364000Y1158400D01*
X10357600Y1171100D01*
X10347900Y1181700D01*
X10335000Y1185900D01*
G01X9922100Y2540000D02*
Y2667000D01*
X9962300D01*
X9975200Y2660600D01*
X9983200Y2652200D01*
X9986400Y2635200D01*
X9983200Y2618300D01*
X9973600Y2607700D01*
X9962300Y2601400D01*
X9922100D01*
G01X9962300D02*
X9986400Y2540000D01*
G01X10053200Y2592900D02*
X10064400Y2607700D01*
X10074100Y2616200D01*
X10087000Y2620400D01*
X10098200Y2616200D01*
X10106300Y2607700D01*
X10112700Y2595000D01*
X10114300Y2580200D01*
X10112700Y2567500D01*
X10106300Y2554800D01*
X10096600Y2544200D01*
X10085400Y2540000D01*
X10072500Y2544200D01*
X10061200Y2556900D01*
X10054800Y2576000D01*
X10053200Y2597100D01*
X10056400Y2624700D01*
X10061200Y2639500D01*
X10069300Y2654300D01*
X10080500Y2664900D01*
X10091800Y2667000D01*
X10103100Y2662800D01*
X10111100Y2652200D01*
G01X10049100Y3175000D02*
Y3302000D01*
X10089300D01*
X10102200Y3295600D01*
X10110200Y3287200D01*
X10113400Y3270200D01*
X10110200Y3253300D01*
X10100600Y3242700D01*
X10089300Y3236400D01*
X10049100D01*
G01X10089300D02*
X10113400Y3175000D01*
G01X10210700D02*
X10222000Y3177100D01*
X10234900Y3183500D01*
X10242900Y3194000D01*
X10246100Y3208900D01*
X10242900Y3223700D01*
X10233300Y3236400D01*
X10218800Y3242700D01*
X10202700D01*
X10193100Y3247000D01*
X10185000Y3257500D01*
X10181800Y3272400D01*
X10186600Y3287200D01*
X10197900Y3297800D01*
X10210700Y3302000D01*
X10223600Y3297800D01*
X10234900Y3287200D01*
X10239700Y3272400D01*
X10236500Y3257500D01*
X10228400Y3247000D01*
X10218800Y3242700D01*
X10202700D01*
X10188200Y3236400D01*
X10178600Y3223700D01*
X10175400Y3208900D01*
X10178600Y3194000D01*
X10186600Y3183500D01*
X10199500Y3177100D01*
X10210700Y3175000D01*
G54D11*
G01X920700Y1270000D02*
G02I-285700J0D01*
G01X698500Y3302000D02*
X635000D01*
G01X698500Y3175000D02*
Y3302000D01*
G01D02*
Y3429000D01*
G01X1333500Y3175000D02*
X698500D01*
G01Y3429000D02*
X1333500D01*
G01X1682700Y1016000D02*
G02I-285700J0D01*
G01X1333500Y3302000D02*
X1397000D01*
G01X1333500Y3429000D02*
Y3302000D01*
G01D02*
Y3175000D01*
G01X2444700Y1016000D02*
G02I-285700J0D01*
G01X2698700Y1651000D02*
G02I-285700J0D01*
G01X1968500Y3302000D02*
X1905000D01*
G01X2603500D02*
X2667000D01*
G01X1968500Y3175000D02*
Y3302000D01*
G01D02*
Y3429000D01*
G01X2603500D02*
Y3302000D01*
G01D02*
Y3175000D01*
G01D02*
X1968500D01*
G01Y3429000D02*
X2603500D01*
G01X3206700Y762000D02*
G02I-285700J0D01*
G01X3429000Y2698700D02*
G02X3746500Y2381300I100J-317400D01*
G02X3111500I-317500J0D01*
G02X3429000Y2698700I317400J0D01*
G01X2794000Y2095500D02*
Y2032000D01*
G01X2921000Y2095500D02*
X2794000D01*
G01D02*
X2667000D01*
G01D02*
Y2730500D01*
G01X2921000D02*
Y2095500D01*
G01X2794000Y2730500D02*
Y2794000D01*
G01X2667000Y2730500D02*
X2794000D01*
G01D02*
X2921000D01*
G01X3365500Y3302000D02*
X3302000D01*
G01X3365500Y3175000D02*
Y3302000D01*
G01D02*
Y3429000D01*
G01X4000500Y3175000D02*
X3365500D01*
G01Y3429000D02*
X4000500D01*
G01X3797300Y2222500D02*
Y2476500D01*
G01X5092700Y2222500D02*
X3797300D01*
G01X3937000Y2476500D02*
X4191000D01*
G01X3797300D02*
X3937000D01*
G01X4000500Y3302000D02*
X4064000D01*
G01X4000500Y3429000D02*
Y3302000D01*
G01D02*
Y3175000D01*
G01X4699000Y2476500D02*
X4953000D01*
G01X4445000D02*
X4699000D01*
G01X4191000D02*
X4445000D01*
G01X4762500Y2540000D02*
Y2667000D01*
G01X5397500Y2540000D02*
X4762500D01*
G01X4699000Y3365500D02*
Y3492500D01*
G01X5334000Y3365500D02*
X4699000D01*
G01X4432300Y3175000D02*
X5727700D01*
G01X4432300Y2921000D02*
Y3175000D01*
G01X4572000Y2921000D02*
X4432300D01*
G01X4826000D02*
X4572000D01*
G01X5080000D02*
X4826000D01*
G01X4762500Y2667000D02*
X4699000D01*
G01X4762500D02*
Y2794000D01*
G01D02*
X5397500D01*
G01X4699000Y3492500D02*
X4635500D01*
G01X4699000D02*
Y3619500D01*
G01D02*
X5334000D01*
G01X5588000Y1714500D02*
Y571500D01*
G01D02*
X5080000D01*
G01D02*
Y1714500D01*
G01D02*
X5588000D01*
G01X5092700Y2476500D02*
Y2222500D01*
G01X4953000Y2476500D02*
X5092700D01*
G01X5397500Y2667000D02*
Y2540000D01*
G01X5334000Y3492500D02*
Y3365500D01*
G01Y2921000D02*
X5080000D01*
G01X5588000D02*
X5334000D01*
G01X5727700D02*
X5588000D01*
G01X5397500Y2667000D02*
X5461000D01*
G01X5397500Y2794000D02*
Y2667000D01*
G01X5334000Y3492500D02*
X5397500D01*
G01X5334000Y3619500D02*
Y3492500D01*
G01X6921500Y635000D02*
X5778500D01*
G01D02*
Y1143000D01*
G01D02*
X6921500D01*
G01X5956300Y3175000D02*
X7251700D01*
G01X5956300Y2921000D02*
Y3175000D01*
G01X6096000Y2921000D02*
X5956300D01*
G01X6350000D02*
X6096000D01*
G01X6604000D02*
X6350000D01*
G01X6921500Y3302000D02*
X6286500D01*
G01D02*
Y3429000D01*
G01X5727700Y3175000D02*
Y2921000D01*
G01X6286500Y3429000D02*
X6223000D01*
G01X6286500D02*
Y3556000D01*
G01D02*
X6921500D01*
G01Y1143000D02*
Y635000D01*
G01X7175500Y2667000D02*
Y2540000D01*
G01D02*
X6540500D01*
G01D02*
Y2667000D01*
G01X6858000Y2921000D02*
X6604000D01*
G01X7112000D02*
X6858000D01*
G01X7251700D02*
X7112000D01*
G01X7175500Y2667000D02*
X7239000D01*
G01X6540500D02*
X6477000D01*
G01X7175500Y2794000D02*
Y2667000D01*
G01X6540500D02*
Y2794000D01*
G01D02*
X7175500D01*
G01X6921500Y3429000D02*
Y3302000D01*
G01Y3429000D02*
X6985000D01*
G01X6921500Y3556000D02*
Y3429000D01*
G01X7429500Y1397000D02*
X8064500D01*
G01X7429500Y1270000D02*
Y1397000D01*
G01Y1143000D02*
Y1270000D01*
G01X8064500Y1143000D02*
X7429500D01*
G01Y1270000D02*
X7366000D01*
G01X7251700Y3175000D02*
Y2921000D01*
G01X7874000Y3365500D02*
Y2730500D01*
G01X7747000Y3365500D02*
X7874000D01*
G01X7620000D02*
X7747000D01*
G01X7620000Y2730500D02*
Y3365500D01*
G01X7747000Y2730500D02*
X7620000D01*
G01X7874000D02*
X7747000D01*
G01Y3365500D02*
Y3429000D01*
G01Y2730500D02*
Y2667000D01*
G01X9048700Y762000D02*
G02I-285700J0D01*
G01X8064500Y1270000D02*
Y1143000D01*
G01Y1397000D02*
Y1270000D01*
G01D02*
X8128000D01*
G01X9017000Y1841500D02*
X8382000D01*
G01D02*
Y1968500D01*
G01X9048700Y1397000D02*
G02I-285700J0D01*
G01X8382000Y1968500D02*
X8318500D01*
G01X8382000D02*
Y2095500D01*
G01D02*
X9017000D01*
G01X8636000Y3111500D02*
X8572500D01*
G01X8636000Y2984500D02*
Y3111500D01*
G01D02*
Y3238500D01*
G01D02*
X9271000D01*
G01Y2984500D02*
X8636000D01*
G01X8128000Y2730500D02*
Y2667000D01*
G01Y3365500D02*
Y3429000D01*
G01X8255000Y2730500D02*
X8128000D01*
G01D02*
X8001000D01*
G01D02*
Y3365500D01*
G01D02*
X8128000D01*
G01D02*
X8255000D01*
G01D02*
Y2730500D01*
G01X9810700Y762000D02*
G02I-285700J0D01*
G01X9017000Y1968500D02*
Y1841500D01*
G01X9810700Y1397000D02*
G02I-285700J0D01*
G01X9017000Y1968500D02*
X9080500D01*
G01X9017000Y2095500D02*
Y1968500D01*
G01X9271000Y3111500D02*
X9334500D01*
G01X9271000Y3238500D02*
Y3111500D01*
G01D02*
Y2984500D01*
G01X10572700Y762000D02*
G02I-285700J0D01*
G01X9652000Y2857500D02*
X9588500D01*
G01X10287000Y2730500D02*
X9652000D01*
G01D02*
Y2857500D01*
G01D02*
Y2984500D01*
G01D02*
X10287000D01*
G01Y3302000D02*
X9652000D01*
G01D02*
Y3429000D01*
G01D02*
X9588500D01*
G01X9652000D02*
Y3556000D01*
G01D02*
X10287000D01*
G01Y2857500D02*
X10350500D01*
G01X10287000Y2984500D02*
Y2857500D01*
G01D02*
Y2730500D01*
G01Y3429000D02*
Y3302000D01*
G01Y3429000D02*
X10350500D01*
G01X10287000Y3556000D02*
Y3429000D01*
G54D12*
G01X3867700Y694700D02*
Y837400D01*
G01X6153700Y1329700D02*
Y1472400D01*
M02*
