G04 ================== begin FILE IDENTIFICATION RECORD ==================*
G04 Layout Name:  c:/Users/user/Desktop/work/avrusb500/micro_usb.brd*
G04 Film Name:    SolderT*
G04 File Format:  Gerber RS274X*
G04 File Origin:  Cadence Allegro 16.6-S034*
G04 Origin Date:  Fri Jul 19 12:19:45 2019*
G04 *
G04 Layer:  VIA CLASS/SOLDERMASK_TOP*
G04 Layer:  PIN/SOLDERMASK_TOP*
G04 Layer:  PACKAGE GEOMETRY/SOLDERMASK_TOP*
G04 Layer:  BOARD GEOMETRY/SOLDERMASK_TOP*
G04 *
G04 Offset:    (0.000 0.000)*
G04 Mirror:    No*
G04 Mode:      Positive*
G04 Rotation:  0*
G04 FullContactRelief:  No*
G04 UndefLineWidth:     0.000*
G04 ================== end FILE IDENTIFICATION RECORD ====================*
%FSLAX25Y25*MOMM*%
%IR0*IPPOS*OFA0.00000B0.00000*MIA0B0*SFA1.00000B1.00000*%
%ADD21R,1.72X.4*%
%ADD11C,1.321*%
%ADD12C,1.118*%
%ADD10R,1.321X1.321*%
%ADD17C,1.575*%
%ADD18R,1.575X1.575*%
%ADD14O,.457X1.778*%
%ADD16O,1.778X.457*%
%ADD13R,.457X1.778*%
%ADD15R,1.778X.457*%
%ADD19O,1.9X1.2*%
%ADD20R,1.72X1.1*%
%LPD*%
G75*
G54D10*
X635000Y1143000D03*
X1397000D03*
X2032000Y1016000D03*
X2286000Y1651000D03*
X3048000Y762000D03*
X3429000Y2540000D03*
X8763000Y889000D03*
Y1524000D03*
X9398000Y762000D03*
Y1397000D03*
X10160000Y762000D03*
G54D20*
X10171000Y1640000D03*
Y2170000D03*
G54D11*
X635000Y1397000D03*
X508000Y3302000D03*
X1397000Y889000D03*
X1778000Y3302000D03*
X1524000D03*
X2286000Y1016000D03*
X2540000Y1651000D03*
X2794000Y762000D03*
Y1905000D03*
X3429000Y2222500D03*
X2794000Y2921000D03*
X3175000Y3302000D03*
X2794000D03*
X4191000D03*
X4572000Y2667000D03*
X4508500Y3492500D03*
X5334000Y762000D03*
Y1524000D03*
X5588000Y2667000D03*
X5524500Y3492500D03*
X5969000Y889000D03*
X6350000Y2667000D03*
X6096000Y3429000D03*
X6731000Y889000D03*
X7239000Y1270000D03*
X7112000Y3429000D03*
X7366000Y2667000D03*
X7747000Y2540000D03*
Y3556000D03*
X8763000Y635000D03*
X8255000Y1270000D03*
X8763000D03*
X8191500Y1968500D03*
X8128000Y2540000D03*
X8445500Y3111500D03*
X8128000Y3556000D03*
X9207500Y1968500D03*
X9461500Y3111500D03*
Y2857500D03*
Y3429000D03*
X9652000Y762000D03*
Y1397000D03*
X10414000Y762000D03*
X10477500Y2857500D03*
Y3429000D03*
G54D12*
X2476500Y1143000D03*
X3365500Y558800D03*
X3937000Y635000D03*
X3682900Y1778000D03*
X3683000Y1905000D03*
X4097000Y1745000D03*
D03*
X4127500Y1841500D03*
X4191000Y1968500D03*
X4445000Y508000D03*
X4889500Y952400D03*
X4635500Y2159000D03*
X5207000Y1778000D03*
X5016500Y1714500D03*
Y1524000D03*
X5029200Y2146300D03*
X5588000Y3152200D03*
D03*
X6477000Y571500D03*
X5778500Y1714500D03*
Y1841500D03*
X6463000Y2413000D03*
X6731000Y1016000D03*
X6813500Y1541800D03*
D03*
X6985000Y1397000D03*
X6779200Y2461200D03*
X6771600Y2598400D03*
X6783100Y1967200D03*
X6813500Y1941800D03*
D03*
X6858000Y2667000D03*
Y2794000D03*
X7366000Y1079500D03*
X8255000Y1541800D03*
X8890000Y889000D03*
D03*
D03*
Y1524000D03*
D03*
X9652000Y571500D03*
D03*
G54D21*
X10171000Y1840000D03*
Y1775000D03*
Y2035000D03*
Y1970000D03*
Y1905000D03*
G54D13*
X3937000Y762000D03*
X4257000Y1611600D03*
X6223000Y1397000D03*
X6543000Y2246600D03*
G54D14*
X4017000Y762000D03*
X4097000D03*
Y1611600D03*
X4017000D03*
X3937000D03*
X4177000Y762000D03*
X4257000D03*
X4337000D03*
X4417100D03*
X4497100D03*
Y1611600D03*
X4417100D03*
X4337000D03*
X4177000D03*
X6303000Y1397000D03*
X6383000D03*
Y2246600D03*
X6303000D03*
X6223000D03*
X6463000Y1397000D03*
X6543000D03*
X6623000D03*
X6703100D03*
X6783100D03*
Y2246600D03*
X6703100D03*
X6623000D03*
X6463000D03*
G54D15*
X3792200Y1066800D03*
X4641800Y986800D03*
X6078200Y1701800D03*
X6927800Y1621800D03*
G54D16*
X3792200Y986800D03*
Y906800D03*
Y1466800D03*
Y1386800D03*
Y1306800D03*
Y1226800D03*
Y1146800D03*
X4641800Y906800D03*
Y1066800D03*
Y1146800D03*
Y1226800D03*
Y1306800D03*
Y1386800D03*
Y1466800D03*
X6078200Y1861800D03*
Y1781800D03*
Y1621800D03*
Y1541800D03*
Y2101800D03*
Y2021800D03*
Y1941800D03*
X6927800Y1541800D03*
Y1701800D03*
Y1781800D03*
Y1861800D03*
Y1941800D03*
Y2021800D03*
Y2101800D03*
G54D17*
X3937000Y2349500D03*
X4191000D03*
X4445000D03*
X4699000D03*
X4826000Y3048000D03*
X5588000D03*
X5334000D03*
X5080000D03*
X6350000D03*
X7112000D03*
X6858000D03*
X6604000D03*
G54D18*
X4953000Y2349500D03*
X4572000Y3048000D03*
X6096000D03*
G54D19*
X10171000Y1395000D03*
Y2415000D03*
X10541000Y1395000D03*
Y2415000D03*
M02*
