G04 ================== begin FILE IDENTIFICATION RECORD ==================*
G04 Layout Name:  c:/Users/user/Desktop/work/avrusb500/micro_usb.brd*
G04 Film Name:    TOP*
G04 File Format:  Gerber RS274X*
G04 File Origin:  Cadence Allegro 16.6-S034*
G04 Origin Date:  Fri Jul 19 12:19:46 2019*
G04 *
G04 Layer:  ETCH/TOP*
G04 Layer:  PIN/TOP*
G04 Layer:  VIA CLASS/TOP*
G04 *
G04 Offset:    (0.000 0.000)*
G04 Mirror:    No*
G04 Mode:      Positive*
G04 Rotation:  0*
G04 FullContactRelief:  No*
G04 UndefLineWidth:     0.000*
G04 ================== end FILE IDENTIFICATION RECORD ====================*
%FSLAX25Y25*MOMM*%
%IR0*IPPOS*OFA0.00000B0.00000*MIA0B0*SFA1.00000B1.00000*%
%ADD21R,1.72X.4*%
%ADD11C,1.321*%
%ADD10R,1.321X1.321*%
%ADD17C,1.575*%
%ADD18R,1.575X1.575*%
%ADD14O,.457X1.778*%
%ADD16O,1.778X.457*%
%ADD13R,.457X1.778*%
%ADD15R,1.778X.457*%
%ADD19O,1.9X1.2*%
%ADD20R,1.72X1.1*%
%ADD12C,.61*%
%ADD22C,.254*%
%ADD23C,.381*%
%ADD24C,1.58*%
%ADD26C,1.834*%
%ADD28C,2.088*%
%ADD30R,1.982X.66*%
%ADD29R,.66X1.982*%
%ADD31O,2.412X1.712*%
%ADD32R,1.924X1.304*%
%ADD27R,1.832X1.832*%
%ADD25R,1.58X1.58*%
G75*
%LPD*%
G75*
G36*
G01X300100Y300100D02*
Y3699900D01*
X7812100D01*
G02X7819300Y3682500I3J-10188D01*
G01X7778900Y3642000D01*
X7775900Y3643000D01*
G03X7663700Y3594300I-28902J-87011D01*
G01X6867500D01*
X6819700Y3546500D01*
Y3145100D01*
G03X6896300I38300J-97100D01*
G01Y3514700D01*
X6899300Y3517700D01*
X7047100D01*
G02X7053500Y3499600I-55J-10201D01*
G03X7140900Y3342000I58527J-70578D01*
G01X7143900Y3343000D01*
X7200700Y3286100D01*
Y3113000D01*
G02X7182600Y3106500I-10201J-45D01*
G03Y2989500I-70600J-58500D01*
G02X7200700Y2983000I7899J-6455D01*
G01Y2658700D01*
X7120300Y2578300D01*
X6794400D01*
X6784200Y2568100D01*
X6712600D01*
X6678700Y2534200D01*
G02X6661300Y2541400I-7212J7197D01*
G01Y2625700D01*
X6664300Y2628700D01*
X6817000D01*
G03Y2705300I41000J38300D01*
G01X6632500D01*
X6596200Y2669000D01*
G02X6578800Y2676200I-7212J7197D01*
G01Y2755700D01*
X6817000D01*
G03Y2832300I41000J38300D01*
G01X6537300D01*
X6502200Y2797200D01*
Y2454800D01*
G02X6486200Y2446400I-10208J6D01*
G03X6440100Y2379400I-23199J-33398D01*
G01Y2336500D01*
G03X6430000Y2312600I22938J-23777D01*
G01Y2180500D01*
G03X6496000I33000J50D01*
G01Y2240200D01*
X6505000D01*
X6506100Y2236500D01*
G03X6510000Y2227200I36943J10025D01*
G01Y2147500D01*
X6576000D01*
Y2227200D01*
G03X6577600Y2230300I-33177J19087D01*
G01X6578200Y2231700D01*
X6583000Y2234800D01*
X6587800Y2231700D01*
X6588400Y2230300D01*
G03X6590000Y2227200I34778J15987D01*
G01Y2180500D01*
G03X6656000I33000J50D01*
G01Y2227200D01*
G03X6658300Y2231800I-33016J19383D01*
G02X6667800I4750J-1916D01*
G03X6669400Y2228300I35604J14161D01*
G01X6670000Y2227200D01*
Y2180500D01*
G03X6736200I33100J50D01*
G01Y2227200D01*
X6736800Y2228300D01*
G03X6737700Y2230100I-33878J18064D01*
G01X6739100Y2233000D01*
X6747400D01*
Y2180500D01*
G03X6818800I35700J50D01*
G01Y2312700D01*
G03X6758600Y2338700I-35737J-52D01*
G02X6741400Y2346100I-7007J7403D01*
G01Y2488500D01*
X6744400Y2491500D01*
X6816000D01*
X6826200Y2501700D01*
X7152100D01*
X7271700Y2621300D01*
G02X7287600Y2619400I7204J-7196D01*
G03X7295400Y2725500I78397J47573D01*
G02X7277300Y2732000I-7899J6455D01*
G01Y3317900D01*
X7198000Y3397100D01*
X7199000Y3400100D01*
G03X7170500Y3499600I-87011J28909D01*
G02X7176900Y3517700I6455J7899D01*
G01X7663700D01*
G03X7834000Y3584900I83249J38416D01*
G01X7833000Y3587900D01*
X7867100Y3621900D01*
X8042700D01*
G02X8051200Y3606100I-22J-10198D01*
G03X8218700Y3569500I76801J-50102D01*
G02X8228800Y3581200I10086J1503D01*
G01X10563200D01*
X10566200Y3578200D01*
Y3493900D01*
G02X10548100Y3487500I-10201J55D01*
G03X10394200Y3467300I-70596J-58509D01*
G01X10296500D01*
X10248700Y3419500D01*
Y2505100D01*
G02X10235000Y2495500I-10209J-7D01*
G03X10206000Y2500600I-29102J-80482D01*
G01X10136000D01*
G03Y2329400I0J-85600D01*
G01X10206000D01*
G03X10250300Y2341800I-69J85581D01*
G02X10265800Y2333000I5290J-8732D01*
G01Y2296200D01*
X9895800D01*
Y1943300D01*
X9308300D01*
G02X9298200Y1955000I-14J10197D01*
G03X9239400Y1882500I-90696J13463D01*
G01X9255100Y1866700D01*
X9895800D01*
Y1513800D01*
X10614700D01*
Y2296200D01*
X10515800D01*
Y2320600D01*
X10515700Y2320700D01*
G02X10519300Y2329400I3609J3602D01*
G01X10576000D01*
G03X10620300Y2341800I-69J85581D01*
G02X10635800Y2333000I5290J-8732D01*
G01Y1477000D01*
G02X10620300Y1468200I-10210J-68D01*
G03X10576000Y1480600I-44369J-73181D01*
G01X10506000D01*
G03Y1309400I0J-85600D01*
G01X10576200D01*
G03X10614900Y1318700I-108J85622D01*
G02X10629700Y1309700I4618J-9075D01*
G01Y1031900D01*
X10445900Y848000D01*
X10442900Y849000D01*
G03X10501000Y790900I-28900J-87000D01*
G01X10500000Y793900D01*
X10682500Y976300D01*
G02X10699900Y969100I7212J-7197D01*
G01Y300100D01*
X300100D01*
G37*
G36*
G01X9988300Y1524000D02*
Y1752100D01*
X10074800D01*
Y1744800D01*
X10267200D01*
Y1801700D01*
X10282600D01*
Y1559400D01*
X10077700D01*
Y1524000D01*
X9988300D01*
G37*
G36*
G01X10087900Y1534400D02*
Y1549200D01*
X10292800D01*
Y1791500D01*
X10484900D01*
X10526000Y1832600D01*
Y2275600D01*
X10594100D01*
Y1534400D01*
X10087900D01*
G37*
G36*
G01X9916400D02*
Y1856500D01*
X10049200D01*
Y1832900D01*
X9978100D01*
Y1534400D01*
X9916400D01*
G37*
G36*
G01X10267200Y1878300D02*
Y1937100D01*
X10269900D01*
Y2002900D01*
X10267200D01*
Y2065200D01*
X10074800D01*
Y2002900D01*
X10072100D01*
Y1943300D01*
X9906000D01*
Y2286000D01*
X10439200D01*
Y1878300D01*
X10267200D01*
G37*
%LPC*%
G75*
G36*
G01X5085300Y2148200D02*
Y2146100D01*
G02X5029000Y2202400I-56100J200D01*
G01X5031100D01*
X5113600Y2284900D01*
X6190000D01*
Y2312600D01*
G02X6256000I33000J50D01*
G01Y2266000D01*
G02X6259900Y2256700I-33043J-19325D01*
G01X6261000Y2253000D01*
X6270000D01*
Y2312600D01*
G02X6336000I33000J50D01*
G01Y2180600D01*
G02X6270000I-33000J-50D01*
G01Y2240200D01*
X6261000D01*
X6259900Y2236500D01*
G02X6256000Y2227200I-36943J10025D01*
G01Y2180600D01*
G02X6190000I-33000J-50D01*
G01Y2208300D01*
X5145400D01*
X5085300Y2148200D01*
G37*
G36*
G01X4894500Y1890700D02*
X5014600Y1770600D01*
X5016700D01*
G02X4960400Y1714300I-200J-56100D01*
G01Y1716400D01*
X4817900Y1858900D01*
Y2141600D01*
X4904100Y2227700D01*
G03X4896900Y2245200I-7194J7271D01*
G01X4848600D01*
Y2453800D01*
X5057400D01*
Y2245200D01*
X4991300D01*
Y2206600D01*
X4894500Y2109800D01*
Y1890700D01*
G37*
G36*
G01X3410200Y592700D02*
G02X3320800I-44700J-33900D01*
G01Y807000D01*
X3029500Y1098300D01*
X2510400D01*
G02X2442600I-33900J44700D01*
G01X2338500D01*
G03X2332500Y1079900I28J-10187D01*
G02X2239500I-46500J-63900D01*
G03X2233500Y1098300I-6028J8213D01*
G01X2177500D01*
X2123600Y1044400D01*
Y924400D01*
X1940400D01*
Y1107600D01*
X2060400D01*
X2140500Y1187700D01*
X2442600D01*
G02X2510400I33900J-44700D01*
G01X3066500D01*
X3410200Y844000D01*
Y592700D01*
G37*
G36*
G01X6336000Y1463100D02*
Y1330900D01*
G02X6270000I-33000J50D01*
G01Y1463100D01*
G02X6336000I33000J-50D01*
G37*
G36*
G01X4707800Y1353800D02*
X4575800D01*
G02Y1419800I-50J33000D01*
G01X4635400D01*
Y1428800D01*
X4631700Y1429900D01*
G02X4622400Y1433800I10025J36943D01*
G01X4575800D01*
G02Y1499800I-50J33000D01*
G01X4597200D01*
Y2118000D01*
G02X4579800Y2152700I38339J40937D01*
G03X4562400Y2158700I-10137J-1166D01*
G01X4535400Y2131700D01*
Y1611600D01*
G02X4530200Y1592200I-38333J-122D01*
G01Y1545600D01*
G02X4464000I-33100J-50D01*
G01Y1592200D01*
G02X4461800Y1596700I33270J19053D01*
G03X4452400I-4700J-1935D01*
G02X4450200Y1592200I-35470J14553D01*
G01Y1545600D01*
G02X4384000I-33100J-50D01*
G01Y1592200D01*
G02X4381800Y1596800I33389J18795D01*
G03X4372300I-4750J-1916D01*
G02X4370000Y1592200I-35316J14783D01*
G01Y1545600D01*
G02X4304000I-33000J-50D01*
G01Y1584600D01*
X4294600Y1587400D01*
G02X4290000Y1581500I-37420J24431D01*
G01Y1512500D01*
X4224000D01*
Y1581500D01*
G02X4219400Y1587400I32820J30331D01*
G01X4210000Y1584600D01*
Y1545600D01*
G02X4144000I-33000J-50D01*
G01Y1677600D01*
G02X4196200Y1704600I33047J70D01*
G03X4212300Y1712900I5916J8289D01*
G01Y1884000D01*
X4183400Y1912900D01*
X4181800Y1913200D01*
G02X4246300Y1977700I9200J55300D01*
G01X4246600Y1976100D01*
X4301700Y1921000D01*
Y1769400D01*
G03X4319100Y1762200I10188J-3D01*
G01X4343200Y1786300D01*
Y2143100D01*
X4232600Y2253700D01*
G02X4152700Y2446600I-41588J95771D01*
G01Y2755700D01*
X2757800D01*
X2628700Y2884800D01*
Y3338200D01*
X2735000Y3444500D01*
X2853000D01*
X2957200Y3340300D01*
X3091700D01*
G02Y3263700I83300J-38300D01*
G01X2925400D01*
X2900900Y3288200D01*
G03X2883700Y3283100I-7220J-7203D01*
G02X2832300Y3218700I-89716J18894D01*
G01Y3004300D01*
G02X2877300Y2959300I-38300J-83300D01*
G01X4343200D01*
Y3086300D01*
X4467600D01*
Y3152400D01*
X4676400D01*
Y2943600D01*
X4467600D01*
Y3009700D01*
X4419800D01*
Y2882700D01*
X2877300D01*
G02X2852500Y2850400I-83310J38295D01*
G03X2859000Y2832300I6455J-7899D01*
G01X4194200D01*
X4229300Y2797200D01*
Y2446600D01*
G02X4288000Y2311000I-38318J-97093D01*
G01X4286800Y2307900D01*
X4389300Y2205400D01*
G03X4406700Y2212600I7212J7197D01*
G01Y2252400D01*
G02Y2446600I38300J97100D01*
G01Y2657500D01*
X4454500Y2705300D01*
X4488700D01*
G02X4501400Y2608500I83306J-38303D01*
G03X4483300Y2602000I-7899J-6455D01*
G01Y2446600D01*
G02Y2252400I-38300J-97100D01*
G01Y2212600D01*
G03X4500700Y2205400I10188J-3D01*
G01X4603200Y2307900D01*
X4602000Y2311000D01*
G02X4660500Y2252500I97000J38500D01*
G01X4657400Y2253700D01*
X4635800Y2232100D01*
G03X4641800Y2214700I7166J-7263D01*
G02X4673800Y2118000I-6306J-55731D01*
G01Y1537300D01*
X4680100Y1531000D01*
Y1499800D01*
X4707800D01*
G02Y1433800I50J-33000D01*
G01X4661200D01*
G02X4651900Y1429900I-19325J33043D01*
G01X4648200Y1428800D01*
Y1419800D01*
X4707800D01*
G02Y1353800I50J-33000D01*
G37*
G36*
G01X8715400Y533200D02*
X6518000D01*
G02Y609800I-41000J38300D01*
G01X8662200D01*
G03X8672300Y621500I14J10197D01*
G02X8734100Y548000I90689J13521D01*
G01X8731100Y549000D01*
X8715400Y533200D01*
G37*
G36*
G01X6311700Y2950900D02*
G02X6388300I38300J97100D01*
G01Y2750300D01*
G02X6311700I-38300J-83300D01*
G01Y2950900D01*
G37*
G36*
G01X5372300Y3292500D02*
Y3145100D01*
G02X5295700I-38300J-97100D01*
G01Y3260700D01*
X5292700Y3263700D01*
X4274300D01*
G02Y3340300I-83300J38300D01*
G01X5324500D01*
X5372300Y3292500D01*
G37*
G36*
G01X6200400Y3152400D02*
Y2943600D01*
X5991600D01*
Y3152400D01*
X6057700D01*
Y3345700D01*
G02X6134300I38300J83300D01*
G01Y3152400D01*
X6200400D01*
G37*
G36*
G01X3726200Y953800D02*
G02Y1019800I-50J33000D01*
G01X3858200D01*
G02Y953800I50J-33000D01*
G01X3726200D01*
G37*
G36*
G01Y873800D02*
G02Y939800I-50J33000D01*
G01X3858200D01*
G02Y873800I50J-33000D01*
G01X3726200D01*
G37*
G36*
G01Y1353800D02*
G02Y1419800I-50J33000D01*
G01X3858200D01*
G02Y1353800I50J-33000D01*
G01X3726200D01*
G37*
G36*
G01Y1273800D02*
G02Y1339800I-50J33000D01*
G01X3858200D01*
G02Y1273800I50J-33000D01*
G01X3726200D01*
G37*
G36*
G01Y1193800D02*
G02Y1259800I-50J33000D01*
G01X3858200D01*
G02Y1193800I50J-33000D01*
G01X3726200D01*
G37*
G36*
G01Y1113800D02*
G02Y1179800I-50J33000D01*
G01X3858200D01*
G02Y1113800I50J-33000D01*
G01X3726200D01*
G37*
G36*
G01X4290000Y696000D02*
G02X4224000I-33000J-50D01*
G01Y828000D01*
G02X4290000I33000J50D01*
G01Y696000D01*
G37*
G36*
G01X4575800Y1113800D02*
G02Y1179800I-50J33000D01*
G01X4707800D01*
G02Y1113800I50J-33000D01*
G01X4575800D01*
G37*
G36*
G01Y1193800D02*
G02Y1259800I-50J33000D01*
G01X4707800D01*
G02Y1193800I50J-33000D01*
G01X4575800D01*
G37*
G36*
G01Y1273800D02*
G02Y1339800I-50J33000D01*
G01X4707800D01*
G02Y1273800I50J-33000D01*
G01X4575800D01*
G37*
G36*
G01X6416000Y2180600D02*
G02X6350000I-33000J-50D01*
G01Y2312600D01*
G02X6416000I33000J50D01*
G01Y2180600D01*
G37*
G36*
G01X6861800Y1988800D02*
G02Y2054800I-50J33000D01*
G01X6993800D01*
G02Y1988800I50J-33000D01*
G01X6861800D01*
G37*
G36*
G01Y2068800D02*
G02Y2134800I-50J33000D01*
G01X6993800D01*
G02Y2068800I50J-33000D01*
G01X6861800D01*
G37*
G36*
G01X6012200Y1508800D02*
G02Y1574800I-50J33000D01*
G01X6144200D01*
G02Y1508800I50J-33000D01*
G01X6012200D01*
G37*
G36*
G01X5007000Y761800D02*
X4772000D01*
X4724200Y809600D01*
Y836200D01*
X4691900Y868500D01*
X4641800D01*
G02X4622400Y873800I37J38290D01*
G01X4575800D01*
G02Y939800I-50J33000D01*
G01X4622400D01*
G02X4626900Y942100I19641J-32877D01*
G03Y951500I-1935J4700D01*
G02X4622400Y953800I15141J35177D01*
G01X4542700D01*
Y1019800D01*
X4622400D01*
G02X4631700Y1023700I19325J-33043D01*
G01X4635400Y1024800D01*
Y1033800D01*
X4575800D01*
G02Y1099800I-50J33000D01*
G01X4707800D01*
G02X4730500Y1042700I53J-33041D01*
G03X4737500Y1025100I6993J-7411D01*
G01X4772000D01*
X4806400Y990700D01*
X4848500D01*
G02Y914100I41000J-38300D01*
G01X4774600D01*
X4740200Y948500D01*
X4732600D01*
G03X4729000Y939800I-12J-5090D01*
G01X4800800Y868000D01*
Y841400D01*
X4803800Y838400D01*
X4975200D01*
X4978200Y841400D01*
Y1483000D01*
G02X5054800I38300J41000D01*
G01Y809600D01*
X5007000Y761800D01*
G37*
G36*
G01X3970000Y861100D02*
Y658800D01*
G02X3904000I-33000J-23800D01*
G01Y861100D01*
X3970000D01*
G37*
G36*
G01X5289000Y336300D02*
X2902500D01*
X2648500Y590300D01*
X680000D01*
X463300Y807000D01*
Y1250400D01*
X527600Y1314700D01*
X563000D01*
G03X570200Y1332100I-8J10193D01*
G02X551700Y1358700I64847J64834D01*
G01X469700D01*
Y3218700D01*
G02X546300I38300J83300D01*
G01Y1462000D01*
G03X564400Y1455500I10201J-45D01*
G02X699800Y1332100I70611J-58506D01*
G03X707000Y1314700I7208J-7207D01*
G01X1567900D01*
X1632200Y1250400D01*
Y908600D01*
X1567900Y844300D01*
X1477100D01*
G02Y933700I-80100J44700D01*
G01X1530900D01*
X1542800Y945600D01*
Y1213400D01*
X1530900Y1225300D01*
X1476000D01*
Y1064000D01*
X1318000D01*
Y1225300D01*
X714000D01*
Y1064000D01*
X552700D01*
Y844000D01*
X717000Y679700D01*
X2685500D01*
X2939500Y425700D01*
X4062400D01*
G03X4069600Y443100I3J10188D01*
G01X4058700Y454000D01*
Y666300D01*
G03X4041100Y673300I-10189J7D01*
G02X3984000Y696000I-24059J22647D01*
G01Y742600D01*
G02X3978700Y762000I32990J19437D01*
G01Y1364600D01*
X3897900Y1445400D01*
G03X3883100Y1445000I-7211J-7195D01*
G02X3858200Y1433800I-24790J21835D01*
G01X3726200D01*
G02Y1499800I-50J33000D01*
G01X3818900D01*
G03X3826100Y1517300I6J10229D01*
G01X3644600Y1698700D01*
Y1737000D01*
G02X3722700Y1738400I38328J40989D01*
G01X3721200Y1737000D01*
Y1730500D01*
X3886500Y1565100D01*
G03X3904000Y1572300I7271J7194D01*
G01Y1677600D01*
G02X3961100Y1700300I33041J53D01*
G03X3978700Y1707300I7411J6993D01*
G01Y1710000D01*
X3974900Y1713800D01*
Y1736700D01*
X3971900Y1739700D01*
X3806800D01*
X3771700Y1774800D01*
Y1930200D01*
X3747600D01*
G03X3737600Y1917700I-49J-10211D01*
G02X3642000Y1866700I-54633J-12691D01*
G01X2877300D01*
G02Y1943300I-83300J38300D01*
G01X3388100D01*
G03X3395300Y1960700I3J10188D01*
G01X3390700Y1965300D01*
Y2139200D01*
G02X3467300I38300J83300D01*
G01Y2006800D01*
X3633500D01*
X3638600Y2011900D01*
X3727400D01*
X3732500Y2006800D01*
X3813200D01*
X3848300Y1971700D01*
Y1816300D01*
X4003700D01*
X4051500Y1768500D01*
Y1745600D01*
X4055300Y1741800D01*
Y1711100D01*
G03X4072500Y1703700I10193J3D01*
G02X4132800Y1677600I24530J-26035D01*
G01Y1545600D01*
G02X4061200I-35800J-50D01*
G01Y1598000D01*
X4052900D01*
X4051600Y1595100D01*
G02X4050000Y1592200I-34305J17035D01*
G01Y1545600D01*
G02X3984000I-33000J-50D01*
G01Y1592200D01*
G02X3980100Y1601500I33043J19325D01*
G01X3979000Y1605200D01*
X3970000D01*
Y1545600D01*
G02X3953200Y1516800I-33000J-50D01*
G03X3951000Y1500700I5018J-8886D01*
G01X4055300Y1396400D01*
Y857700D01*
G03X4072900Y850700I10189J-7D01*
G02X4130000Y828000I24059J-22647D01*
G01Y781400D01*
G02X4133900Y772100I-33043J-19325D01*
G01X4135000Y768400D01*
X4144000D01*
Y828000D01*
G02X4210000I33000J50D01*
G01Y696000D01*
G02X4145300Y686600I-33033J4D01*
G01X4144200Y690300D01*
X4135300D01*
Y666900D01*
G03X4145500Y656700I10198J-2D01*
G02X4151000Y655100I14J-10204D01*
G03X4210000Y660500I26007J40860D01*
G02X4224000I7000J-7439D01*
G03X4290000I33000J35450D01*
G02X4304000I7000J-7439D01*
G03X4333700Y647600I33042J35433D01*
G02X4343200Y637400I-693J-10169D01*
G01Y612500D01*
G03X4328000Y554500I38285J-41025D01*
G02X4318300Y541200I-9697J-3115D01*
G01X4148500D01*
X4144000Y545700D01*
G03X4135300Y542100I-3602J-3609D01*
G01Y485800D01*
X4138300Y482800D01*
X4380400D01*
G03X4390400Y495300I49J10211D01*
G02X4399400Y540600I54615J12693D01*
G01X4400300Y541900D01*
Y551800D01*
X4372400Y579700D01*
Y635000D01*
G02X4378100Y656900I44714J54D01*
G01X4378800Y658100D01*
Y666400D01*
G03X4361200Y673400I-10188J11D01*
G02X4304000Y696000I-24157J22544D01*
G01Y828000D01*
G02X4370000I33000J50D01*
G01Y768000D01*
X4379100D01*
X4380100Y771800D01*
G02X4384000Y781400I37126J-9490D01*
G01Y828000D01*
G02X4450200I33100J50D01*
G01Y781400D01*
G02X4451700Y778500I-33280J-19052D01*
G01X4453000Y775600D01*
X4461400D01*
Y828000D01*
G02X4532800I35700J50D01*
G01Y696000D01*
G02X4472600Y669900I-35737J-48D01*
G03X4455400Y662500I-7007J-7403D01*
G01Y658100D01*
X4456100Y656900D01*
G02X4461800Y635000I-39014J-21846D01*
G01Y616700D01*
X4489700Y588800D01*
Y541900D01*
G02X4499600Y495300I-44718J-33852D01*
G03X4509600Y482800I9951J-2289D01*
G01X5094600D01*
X5097600Y485800D01*
Y2103800D01*
X5133900Y2140100D01*
X6078200D01*
G02X6097600Y2134800I-37J-38290D01*
G01X6144200D01*
G02Y2068800I50J-33000D01*
G01X6105200D01*
X6102400Y2059400D01*
G02X6108300Y2054800I-24431J-37420D01*
G01X6144200D01*
G02Y1988800I50J-33000D01*
G01X6108300D01*
G02X6102400Y1984200I-30331J32820D01*
G01X6105200Y1974800D01*
X6144200D01*
G02Y1908800I50J-33000D01*
G01X6097600D01*
G02X6093100Y1906500I-19641J32877D01*
G03Y1897100I1935J-4700D01*
G02X6097600Y1894800I-15141J-35177D01*
G01X6144200D01*
G02Y1828800I50J-33000D01*
G01X6097600D01*
G02X6094700Y1827200I-19935J32705D01*
G01X6091800Y1825900D01*
Y1817600D01*
X6144200D01*
G02Y1746000I50J-35800D01*
G01X6091800D01*
Y1737700D01*
X6094700Y1736400D01*
G02X6097600Y1734800I-17035J-34305D01*
G01X6177300D01*
Y1668800D01*
X6097600D01*
G02X6094700Y1667200I-19935J32705D01*
G01X6091800Y1665900D01*
Y1657600D01*
X6144200D01*
G02Y1586000I50J-35800D01*
G01X6012200D01*
G02X5986100Y1646300I-65J35770D01*
G03X5978700Y1663500I-7403J7007D01*
G01X5801900D01*
G02X5828400Y1740100I-23407J50982D01*
G01X5978700D01*
G03X5986100Y1757300I-3J10193D01*
G02X5996300Y1813800I26052J24467D01*
G01X5999100Y1815200D01*
Y1823500D01*
X5979800D01*
X5959500Y1803200D01*
X5819500D01*
G02X5743500Y1885300I-41033J38243D01*
G03X5737100Y1903500I-6351J7992D01*
G01X5704200D01*
X5689800Y1889100D01*
Y1475800D01*
X5689900Y1475700D01*
Y1222300D01*
X5937100Y975000D01*
X5940100Y976000D01*
G02X6033800Y824100I28902J-87022D01*
G03X6041000Y806700I7208J-7207D01*
G01X6356900D01*
X6418300Y868100D01*
Y1295700D01*
G03X6402200Y1304000I-10184J11D01*
G02X6350000Y1331000I-19153J26930D01*
G01Y1463000D01*
G02X6416000I33000J50D01*
G01Y1419900D01*
X6424500D01*
X6426000Y1422100D01*
G02X6430000Y1427100I36805J-25344D01*
G01Y1463000D01*
G02X6440100Y1486900I33038J123D01*
G01Y1837000D01*
X6487800Y1884700D01*
X6837900D01*
G02X6861800Y1894800I23777J-22938D01*
G01X6897700D01*
G02X6900200Y1896900I29964J-33133D01*
G03X6897000Y1906000I-3158J4002D01*
G01X6861800D01*
G02Y1977600I-50J35800D01*
G01X6993800D01*
G02X7023800Y1922300I45J-35763D01*
G03X7032300Y1906500I8527J-5599D01*
G01X7067000D01*
X7150800Y1822700D01*
X8362400D01*
X8400500Y1784600D01*
X9073600D01*
X9369600Y1488600D01*
X9489600D01*
Y1305400D01*
X9306400D01*
Y1425400D01*
X9036600Y1695200D01*
X8426700D01*
Y1099100D01*
X8362400Y1034800D01*
X7399900D01*
G02X7359700Y1135200I-33917J44668D01*
G03X7365700Y1152600I-1166J10137D01*
G01X7308500Y1209800D01*
X7304900Y1206200D01*
X7304800D01*
G02X7277300Y1186700I-65875J63760D01*
G01Y771500D01*
X7260000Y754200D01*
G03X7267200Y736800I7197J-7212D01*
G01X8366100D01*
X8724700Y1095400D01*
Y1186700D01*
G02X8801300I38300J83300D01*
G01Y1063600D01*
X8723000Y985400D01*
G03X8730200Y968000I7214J-7205D01*
G01X8842000D01*
Y810000D01*
X8684000D01*
Y921800D01*
G03X8666600Y929000I-10195J-14D01*
G01X8397900Y660200D01*
X5699200D01*
X5613200Y746200D01*
Y809600D01*
X5567100Y855700D01*
G03X5549700Y848500I-7212J-7197D01*
G01Y714400D01*
X5505700Y670400D01*
Y553000D01*
X5289000Y336300D01*
G37*
G54D24*
X9652000Y1397000D03*
Y762000D03*
X2794000D03*
G54D26*
X9461500Y3429000D03*
Y2857500D03*
Y3111500D03*
X8445500D03*
X8128000Y2540000D03*
X8191500Y1968500D03*
X7747000Y2540000D03*
X5524500Y3492500D03*
X5588000Y3048000D03*
Y2667000D03*
X4508500Y3492500D03*
X3937000Y2349500D03*
X2540000Y1651000D03*
X1524000Y3302000D03*
X1778000D03*
G54D28*
X6604000Y3048000D03*
X5080000D03*
X4826000D03*
G54D30*
X3792200Y1066800D03*
G54D29*
X6223000Y1397000D03*
G54D31*
X10171000Y1395000D03*
G54D32*
Y1640000D03*
Y2170000D03*
G54D27*
X9398000Y762000D03*
X3429000Y2540000D03*
X3048000Y762000D03*
G54D25*
X10160000D03*
X8763000Y1524000D03*
X2286000Y1651000D03*
%LPD*%
G75*
G36*
G01X5174200Y490400D02*
X5292100D01*
G02X5299300Y473000I-26J-10200D01*
G01X5252000Y425700D01*
X5170500D01*
G02X5163300Y443100I-3J10188D01*
G01X5174200Y454000D01*
Y490400D01*
G37*
G36*
G01X5575500Y955700D02*
Y1004200D01*
G02X5592900Y1011400I10200J-26D01*
G01X5695200Y909100D01*
X5692200Y905500D01*
G03X5689800Y898900I7795J-6571D01*
G01Y866000D01*
G02X5672400Y858800I-10188J-3D01*
G01X5575500Y955700D01*
G37*
G36*
G01X5251700Y1225000D02*
Y1301600D01*
G02X5269100Y1308800I10197J-17D01*
G01X5481500Y1096400D01*
G03X5488700Y1093400I7221J7191D01*
G02X5498900Y1083200I6J-10194D01*
G01Y1002400D01*
G02X5481500Y995200I-10200J26D01*
G01X5251700Y1225000D01*
G37*
G36*
G01X6537600Y736800D02*
X6438000D01*
G02X6430800Y754200I26J10200D01*
G01X6487300Y810700D01*
G02X6504700Y803500I7200J-7226D01*
G01Y794300D01*
X6544800Y754200D01*
G02X6537600Y736800I-7197J-7212D01*
G37*
G36*
G01X6795500Y1054300D02*
X6969100D01*
X7142700Y1227800D01*
G02X7158800Y1225500I7182J-7228D01*
G03X7200700Y1186700I80158J44539D01*
G01Y803300D01*
X7197700Y800300D01*
X6796000D01*
G02X6789500Y818400I-45J10201D01*
G03X6778600Y967400I-58500J70619D01*
G02X6775800Y982200I5336J8674D01*
G03X6769300Y1057000I-44793J33790D01*
G01Y1111400D01*
X6777200D01*
X6778700Y1109000D01*
G02X6785600Y1066800I-47721J-29467D01*
G03X6795500Y1054300I9951J-2289D01*
G37*
G36*
G01X6607100Y800300D02*
X6581300Y826100D01*
Y1054300D01*
X6666500D01*
G03X6676400Y1066800I-51J10211D01*
G02X6683300Y1109000I54621J12733D01*
G01X6684800Y1111400D01*
X6692700D01*
Y1057000D01*
G03X6686200Y982200I38293J-41010D01*
G02X6683400Y967400I-8136J-6126D01*
G03X6672500Y818400I47600J-78381D01*
G02X6666000Y800300I-6455J-7899D01*
G01X6607100D01*
G37*
G36*
G01X7445400Y1181300D02*
X7381500Y1245200D01*
Y1387500D01*
X7333700Y1435300D01*
X7096100D01*
X6999200Y1338400D01*
G02X6984800I-7200J7184D01*
G03X6978700Y1341300I-7192J-7262D01*
G02X6944000Y1358700I6237J55739D01*
G01X6831600D01*
Y1331000D01*
G02X6812300Y1292300I-48463J7D01*
G03X6809300Y1288600I6198J-8092D01*
G01X6808900Y1287800D01*
X6804700Y1283600D01*
X6800300Y1288000D01*
G02X6801700Y1303600I7178J7219D01*
G03X6816200Y1331000I-18575J27367D01*
G01Y1374100D01*
X6951400D01*
G03Y1419900I33600J22900D01*
G01X6816200D01*
Y1463000D01*
G03X6750000I-33100J50D01*
G01Y1403400D01*
X6741100D01*
X6740000Y1407100D01*
G03X6736200Y1416400I-37057J-9715D01*
G01Y1463000D01*
G03X6670000I-33100J50D01*
G01Y1416400D01*
G03X6667800Y1411800I33389J-18795D01*
G02X6658300I-4750J1916D01*
G03X6656000Y1416400I-35316J-14783D01*
G01Y1463000D01*
G03X6590000I-33000J50D01*
G01Y1416400D01*
G03X6587700Y1411900I32877J-19641D01*
G02X6578300I-4700J1935D01*
G03X6576000Y1416400I-35177J-15141D01*
G01Y1463000D01*
G03X6510000I-33000J50D01*
G01Y1424000D01*
X6500600Y1421200D01*
G03X6496000Y1427100I-37420J-24431D01*
G01Y1463000D01*
G03X6485900Y1486900I-33038J123D01*
G01Y1818000D01*
X6506800Y1838900D01*
X6837900D01*
G03X6861800Y1828800I23777J22938D01*
G01X6897700D01*
G03X6903600Y1824200I30331J32820D01*
G01X6900800Y1814800D01*
X6861800D01*
G03Y1748800I-50J-33000D01*
G01X6993800D01*
G03X7014000Y1808000I36J33034D01*
G01X7017200Y1817100D01*
X7030000D01*
X7113800Y1733300D01*
X8325400D01*
X8337300Y1721400D01*
Y1342000D01*
G02X8319900Y1334800I-10193J8D01*
G03X8168000Y1241100I-64878J-64798D01*
G01X8169000Y1238100D01*
X8112100Y1181300D01*
X7445400D01*
G37*
%LPC*%
G75*
G36*
G01X6861800Y1506000D02*
G02Y1577600I-50J35800D01*
G01X6993800D01*
G02Y1506000I50J-35800D01*
G01X6861800D01*
G37*
G36*
G01Y1668800D02*
G02Y1734800I-50J33000D01*
G01X6993800D01*
G02Y1668800I50J-33000D01*
G01X6861800D01*
G37*
G54D30*
X6927800Y1621800D03*
%LPD*%
G75*
G54D10*
X635000Y1143000D03*
X1397000D03*
X2032000Y1016000D03*
X2286000Y1651000D03*
X3048000Y762000D03*
X3429000Y2540000D03*
X8763000Y889000D03*
Y1524000D03*
X9398000Y762000D03*
Y1397000D03*
X10160000Y762000D03*
G54D20*
X10171000Y1640000D03*
Y2170000D03*
G54D11*
X635000Y1397000D03*
X508000Y3302000D03*
X1397000Y889000D03*
X1778000Y3302000D03*
X1524000D03*
X2286000Y1016000D03*
X2540000Y1651000D03*
X2794000Y762000D03*
Y1905000D03*
X3429000Y2222500D03*
X2794000Y2921000D03*
X3175000Y3302000D03*
X2794000D03*
X4191000D03*
X4572000Y2667000D03*
X4508500Y3492500D03*
X5334000Y762000D03*
Y1524000D03*
X5588000Y2667000D03*
X5524500Y3492500D03*
X5969000Y889000D03*
X6350000Y2667000D03*
X6096000Y3429000D03*
X6731000Y889000D03*
X7239000Y1270000D03*
X7112000Y3429000D03*
X7366000Y2667000D03*
X7747000Y2540000D03*
Y3556000D03*
X8763000Y635000D03*
X8255000Y1270000D03*
X8763000D03*
X8191500Y1968500D03*
X8128000Y2540000D03*
X8445500Y3111500D03*
X8128000Y3556000D03*
X9207500Y1968500D03*
X9461500Y3111500D03*
Y2857500D03*
Y3429000D03*
X9652000Y762000D03*
Y1397000D03*
X10414000Y762000D03*
X10477500Y2857500D03*
Y3429000D03*
G54D12*
X2476500Y1143000D03*
X3365500Y558800D03*
X3937000Y635000D03*
X3682900Y1778000D03*
X3683000Y1905000D03*
X4097000Y1745000D03*
D03*
X4127500Y1841500D03*
X4191000Y1968500D03*
X4445000Y508000D03*
X4889500Y952400D03*
X4635500Y2159000D03*
X5207000Y1778000D03*
X5016500Y1714500D03*
Y1524000D03*
X5029200Y2146300D03*
X5588000Y3152200D03*
D03*
X6477000Y571500D03*
X5778500Y1714500D03*
Y1841500D03*
X6463000Y2413000D03*
X6731000Y1016000D03*
X6813500Y1541800D03*
D03*
X6985000Y1397000D03*
X6779200Y2461200D03*
X6771600Y2598400D03*
X6783100Y1967200D03*
X6813500Y1941800D03*
D03*
X6858000Y2667000D03*
Y2794000D03*
X7366000Y1079500D03*
X8255000Y1541800D03*
X8890000Y889000D03*
D03*
D03*
Y1524000D03*
D03*
X9652000Y571500D03*
D03*
G54D21*
X10171000Y1840000D03*
Y1775000D03*
Y2035000D03*
Y1970000D03*
Y1905000D03*
G54D22*
G01X635000Y1397000D02*
X508000D01*
Y3302000D01*
G01X2794000Y1905000D02*
X3683000D01*
G01X4191000Y2349500D02*
Y2781300D01*
X4178300Y2794000D01*
X2773700D01*
X2667000Y2900700D01*
Y3322300D01*
X2750900Y3406200D01*
X2837100D01*
X2941300Y3302000D01*
X3175000D01*
G01X2794000D02*
Y2921000D01*
G01X4572000Y3048000D02*
X4381500D01*
Y2921000D01*
X2794000D01*
G01X3682900Y1778000D02*
Y1714600D01*
X4017000Y1380500D01*
Y762000D01*
G01X4097000D02*
Y469900D01*
X4122400Y444500D01*
X4411400D01*
X4416500Y439400D01*
X4473500D01*
X4478600Y444500D01*
X5110500D01*
X5135900Y469900D01*
Y2087900D01*
X5149800Y2101800D01*
X6078200D01*
G01X3937000Y762000D02*
Y635000D01*
G01X4017000Y1611600D02*
Y1725900D01*
X4013200Y1729700D01*
Y1752600D01*
X3987800Y1778000D01*
X3822700D01*
X3810000Y1790700D01*
Y1955800D01*
X3797300Y1968500D01*
X3716600D01*
X3711500Y1973600D01*
X3654500D01*
X3649400Y1968500D01*
X3441700D01*
X3429000Y1981200D01*
Y2222500D01*
G01X4497100Y762000D02*
X4538000D01*
G01X4497100Y655100D02*
Y762000D01*
G01X4417100Y635000D02*
Y762000D01*
G01X5016500Y1524000D02*
Y825500D01*
X4991100Y800100D01*
X4787900D01*
X4762500Y825500D01*
Y852100D01*
X4707800Y906800D01*
X4641800D01*
G01X4889500Y952400D02*
X4790500D01*
X4756100Y986800D01*
X4641800D01*
G01X4417100Y1611600D02*
Y1725900D01*
X4432300Y1741100D01*
Y1982400D01*
X4445000Y1995100D01*
Y2349500D01*
G01X4191000D02*
X4381500Y2159000D01*
Y1770400D01*
X4337000Y1725900D01*
Y1611600D01*
G01X4635500Y2159000D02*
Y1521400D01*
X4641800Y1515100D01*
Y1466800D01*
G01X4699000Y2349500D02*
X4497100Y2147600D01*
Y1611600D01*
G01X4953000Y2349500D02*
Y2222500D01*
X4856200Y2125700D01*
Y1874800D01*
X5016500Y1714500D01*
G01X4572000Y2667000D02*
X4470400D01*
X4445000Y2641600D01*
Y2349500D01*
G01X4191000Y3302000D02*
X5308600D01*
X5334000Y3276600D01*
Y3048000D01*
G01X8763000Y1270000D02*
Y1079500D01*
X8382000Y698500D01*
X5715100D01*
X5651500Y762100D01*
Y825500D01*
X5537200Y939800D01*
Y1412400D01*
X5425600Y1524000D01*
X5334000D01*
G01X5969000Y889000D02*
X5651600Y1206400D01*
Y1459800D01*
X5651500Y1459900D01*
Y1905000D01*
X5688300Y1941800D01*
X6078200D01*
G01X5029200Y2146300D02*
X5129500Y2246600D01*
X6223000D01*
G01X6078200Y1781800D02*
X6185100D01*
G01X5971300D02*
X6078200D01*
G01Y1621800D02*
X6185100D01*
G01X5971300D02*
X6078200D01*
G01X6383000Y1397000D02*
X6463000D01*
G01X6078200Y1701800D02*
X5791200D01*
X5778500Y1714500D01*
G01Y1841500D02*
X5943600D01*
X5963900Y1861800D01*
X6078200D01*
G01Y2101800D02*
X6141700D01*
G01X6096000Y3429000D02*
Y3048000D01*
G01X6350000D02*
Y2667000D01*
G01X7239000Y1270000D02*
Y787400D01*
X7213600Y762000D01*
X6591200D01*
X6543000Y810200D01*
Y1397000D01*
G01X6731000Y1016000D02*
Y1206500D01*
X6719500Y1218000D01*
Y1226400D01*
X6652700Y1293200D01*
Y1295100D01*
X6642100Y1305700D01*
Y1311900D01*
X6623000Y1331000D01*
Y1397000D01*
G01X6477000Y571500D02*
X8699500D01*
X8763000Y635000D01*
G01X6927800Y1861800D02*
X6497300D01*
X6463000Y1827500D01*
Y1397000D01*
G01X6703100D02*
Y1331000D01*
X6722100Y1312000D01*
Y1305700D01*
X6757800Y1270000D01*
X6764100D01*
X6856500Y1177600D01*
X6892600D01*
X7112000Y1397000D01*
X7317800D01*
X7343200Y1371600D01*
Y1229300D01*
X7429500Y1143000D01*
X8128000D01*
X8255000Y1270000D01*
G01X6985000Y1397000D02*
X6783100D01*
G01X7112000Y3429000D02*
X7239000Y3302000D01*
Y2642800D01*
X7136200Y2540000D01*
X6810300D01*
X6800100Y2529800D01*
X6728500D01*
X6703100Y2504400D01*
Y2246600D01*
G01X6858000Y2667000D02*
X6648400D01*
X6623000Y2641600D01*
Y2536900D01*
X6611600Y2525500D01*
Y2363400D01*
X6623000Y2352000D01*
Y2246600D01*
G01X6463000D02*
Y2413000D01*
G01X6540500Y2244100D02*
X6543000Y2246600D01*
G01X6858000Y2794000D02*
X6553200D01*
X6540500Y2781300D01*
Y2357100D01*
X6543000Y2354600D01*
Y2246600D01*
G01X7747000Y3556000D02*
X6883400D01*
X6858000Y3530600D01*
Y3048000D01*
G01X7747000Y3556000D02*
X7851200Y3660200D01*
X8171100D01*
X8211800Y3619500D01*
X10579100D01*
X10604500Y3594100D01*
Y2525300D01*
X10674100Y2455700D01*
Y1354300D01*
X10668000Y1348200D01*
Y1016000D01*
X10414000Y762000D01*
G01X9207500Y1968500D02*
X9271000Y1905000D01*
X10171000D01*
G01X9789400Y1778000D02*
X9804400Y1793000D01*
G01X9779000Y1778000D02*
X9789400D01*
G01X9855000Y1793000D02*
X9804400D01*
G01X9891000D02*
X9855000D01*
G01X9891000D02*
X9909000Y1775000D01*
X10171000D01*
G01X10477500Y2857500D02*
Y2525300D01*
X10407900Y2455700D01*
Y2374300D01*
X10477500Y2304700D01*
Y1852700D01*
X10464800Y1840000D01*
X10171000D01*
G01X10282400Y1970000D02*
X10171000D01*
G01X10304100Y1991700D02*
X10282400Y1970000D01*
G01X10477500Y3429000D02*
X10312400D01*
X10287000Y3403600D01*
Y2472800D01*
X10304100Y2455700D01*
Y1991700D01*
G54D13*
X3937000Y762000D03*
X4257000Y1611600D03*
X6223000Y1397000D03*
X6543000Y2246600D03*
G54D23*
G01X635000Y1058900D02*
Y1143000D01*
G01X5207000Y1778000D02*
Y1206500D01*
X5461000Y952500D01*
Y571500D01*
X5270500Y381000D01*
X2921000D01*
X2667000Y635000D01*
X698500D01*
X508000Y825500D01*
Y1231900D01*
X546100Y1270000D01*
X1549400D01*
X1587500Y1231900D01*
Y927100D01*
X1549400Y889000D01*
X1397000D01*
G01X635000Y1143000D02*
X719100D01*
G01X1397000Y1058900D02*
Y1143000D01*
G01X2188200Y1016000D02*
X2159000D01*
Y948000D01*
X2116500Y905500D01*
X2048500D01*
X1905000Y762000D01*
X1143000D01*
Y1143000D01*
G01X1397000D02*
X1481100D01*
G01X1143000D02*
X1397000D01*
G01X2286000Y1016000D02*
X2370100D01*
G01X2201900D02*
X2286000D01*
G01Y931900D02*
Y1016000D01*
G01X2476500Y1143000D02*
X2159000D01*
X2032000Y1016000D01*
G01X2286000Y1651000D02*
X2370100D01*
G01X2201900D02*
X2286000D01*
G01D02*
Y1735100D01*
G01Y1566900D02*
Y1651000D01*
G01X3365500Y558800D02*
Y825500D01*
X3048000Y1143000D01*
X2476500D01*
G01X2794000Y762000D02*
X2878100D01*
G01X2709900D02*
X2794000D01*
G01D02*
Y846100D01*
G01Y677900D02*
Y762000D01*
G01X4121100Y1339900D02*
X4508500Y952500D01*
G01X4097000Y1339900D02*
X4121100D01*
G01X4097000Y1611600D02*
Y1339900D01*
G01Y1611600D02*
Y1745000D01*
G01X3937000Y2349500D02*
X4033800D01*
G01X3840200D02*
X3937000D01*
G01D02*
Y2446300D01*
G01Y2252700D02*
Y2349500D01*
G01X4445000Y508000D02*
Y570300D01*
X4417100Y598200D01*
Y635000D01*
G01X4497100Y939800D02*
Y762000D01*
G01X4191000Y1968500D02*
X4257000Y1902500D01*
Y1611600D01*
G01X6078200Y2021800D02*
X5613400D01*
X5588000Y1996400D01*
Y1442500D01*
X5594400Y1436100D01*
Y1073100D01*
X5905500Y762000D01*
X6375400D01*
X6463000Y849600D01*
Y1397000D01*
G01X5588000Y3048000D02*
X5684800D01*
G01X5491200D02*
X5588000D01*
G01D02*
Y3144800D01*
G01Y2951200D02*
Y3048000D01*
G01X8382000Y1739900D02*
X8343900Y1778000D01*
X7132300D01*
X7048500Y1861800D01*
X6927800D01*
G01X8255000Y1541800D02*
X6927800D01*
G01D02*
X6813500D01*
G01X6783100Y2246600D02*
Y2457300D01*
G01D02*
X6779200Y2461200D01*
G01X6927800Y1941800D02*
X6813500D01*
G01X6783100Y1967200D02*
Y2246600D01*
G01X7015200Y3048000D02*
X7112000D01*
G01D02*
Y3144800D01*
G01Y2951200D02*
Y3048000D01*
G01X7366000Y1079500D02*
X8343900D01*
X8382000Y1117600D01*
Y1739900D01*
G01X8678900Y889000D02*
X8763000D01*
G01X8382000Y1739900D02*
X9055100D01*
X9398000Y1397000D01*
G01X8678900Y1524000D02*
X8763000D01*
G01Y889000D02*
X8847100D01*
G01X8763000D02*
Y973100D01*
G01Y804900D02*
Y889000D01*
G01Y1524000D02*
X8847100D01*
G01X8763000D02*
Y1608100D01*
G01Y1439900D02*
Y1524000D01*
G01X10160000Y762000D02*
X10244100D01*
G01X10075900D02*
X10160000D01*
G01D02*
Y846100D01*
G01Y677900D02*
Y762000D01*
G01X9652000D02*
X9736100D01*
G01X9567900D02*
X9652000D01*
G01D02*
Y846100D01*
G01Y677900D02*
Y762000D01*
G01X9588500Y1778000D02*
X9779000D01*
G01X9573500Y1763000D02*
X9588500Y1778000D01*
G01X9573500Y1678900D02*
Y1763000D01*
G01Y1678900D02*
Y1511500D01*
G01Y1475500D02*
X9652000Y1397000D01*
G01X9573500Y1511500D02*
Y1475500D01*
G01X9652000Y1397000D02*
X9736100D01*
G01X9567900D02*
X9652000D01*
G01D02*
Y1481100D01*
G01Y1312900D02*
Y1397000D01*
G54D14*
X4017000Y762000D03*
X4097000D03*
Y1611600D03*
X4017000D03*
X3937000D03*
X4177000Y762000D03*
X4257000D03*
X4337000D03*
X4417100D03*
X4497100D03*
Y1611600D03*
X4417100D03*
X4337000D03*
X4177000D03*
X6303000Y1397000D03*
X6383000D03*
Y2246600D03*
X6303000D03*
X6223000D03*
X6463000Y1397000D03*
X6543000D03*
X6623000D03*
X6703100D03*
X6783100D03*
Y2246600D03*
X6703100D03*
X6623000D03*
X6463000D03*
G54D15*
X3792200Y1066800D03*
X4641800Y986800D03*
X6078200Y1701800D03*
X6927800Y1621800D03*
G54D16*
X3792200Y986800D03*
Y906800D03*
Y1466800D03*
Y1386800D03*
Y1306800D03*
Y1226800D03*
Y1146800D03*
X4641800Y906800D03*
Y1066800D03*
Y1146800D03*
Y1226800D03*
Y1306800D03*
Y1386800D03*
Y1466800D03*
X6078200Y1861800D03*
Y1781800D03*
Y1621800D03*
Y1541800D03*
Y2101800D03*
Y2021800D03*
Y1941800D03*
X6927800Y1541800D03*
Y1701800D03*
Y1781800D03*
Y1861800D03*
Y1941800D03*
Y2021800D03*
Y2101800D03*
G54D17*
X3937000Y2349500D03*
X4191000D03*
X4445000D03*
X4699000D03*
X4826000Y3048000D03*
X5588000D03*
X5334000D03*
X5080000D03*
X6350000D03*
X7112000D03*
X6858000D03*
X6604000D03*
G54D18*
X4953000Y2349500D03*
X4572000Y3048000D03*
X6096000D03*
G54D19*
X10171000Y1395000D03*
Y2415000D03*
X10541000Y1395000D03*
Y2415000D03*
M02*
